<mxfile host="Electron" agent="Mozilla/5.0 (Windows NT 10.0; Win64; x64) AppleWebKit/537.36 (KHTML, like Gecko) draw.io/24.7.17 Chrome/128.0.6613.36 Electron/32.0.1 Safari/537.36" version="24.7.17">
  <diagram name="第 1 页" id="E4Qutc0fCoBpAYBrilb6">
    <mxGraphModel dx="1235" dy="1140" grid="0" gridSize="10" guides="1" tooltips="1" connect="1" arrows="1" fold="1" page="0" pageScale="1" pageWidth="1169" pageHeight="827" math="0" shadow="0">
      <root>
        <mxCell id="0" />
        <mxCell id="1" parent="0" />
        <mxCell id="gF0N6pOtgDNosUnVR9sg-1" value="" style="shape=image;verticalLabelPosition=bottom;labelBackgroundColor=default;verticalAlign=top;aspect=fixed;imageAspect=0;image=data:image/png,iVBORw0KGgoAAAANSUhEUgAAAVQAAADrCAIAAAC5G/n2AAAgAElEQVR4Ae2c3Wvc2PnHf39GLvei9A+I6BqBQWzK1FCztIhC1YvMjX0R5iLB7dIhFBvK+CKIxQwlN4YJQ5yERJvdCGNEib27ZId1UJytMK7qhpmlRDedQBgIK0i2utGPI+noZXRGM/Fao3n5HsIe+dHRc57zPfqcN9n7f+9osm37v//979u3bx0kKAAFZkIBNzP9H2X/HeCfie5GI6BApEAm+y7gj5TCFRSYMQUA/4x1KJoDBUZV4P3gt5CgABSYFQXczNS/7J+VVqMdUAAKWG5mAvx4RaDAzCqQyX7qwG9mZUDDoMD8KeBmJsz88/dGoMVzo0Am+5j55+Y9QEPnUAHAP4edjiZDAaKAm5mw7MdbAgVmVoFM9rHsn9l+R8OgAGZ+vANQYF4VcDMTlv3z+l6g3XOgQCb7WPbPwRuAJs6tAoB/brseDZ93BQD/vL8BaP/cKgD457br0fB5VwDwz/sbgPbPrQKAf267Hg2fdwUA/7y/AWj/3CoA+Oe269HweVcA8M/7G4D2z60CgH9uux4Nn3cFAP+8vwFo/9wqAPjntuvR8HlXYFLg75y+6JxTXxx/9lC8eXROzkZz0znaunxva//70Uq/R6njuw/Fq18dv8cTKAoFRlXAzUzj+qu+48crF5tLW2cittM/ahw371/c0EcV4Czl2qed/ySfM7avKNuHSdsZfkq15VRVr2x8e3oGV3hk4hV4/PjxixcvMsLc3d19+fJlRoGfeMvNTGOC/8nWbWlLu76ofPb+r/n+RnNjPyFC7vDvqzkNLum2JBqGH2ZIgUePHn344Yd/+MMf/v3vfzOb9be//Y3juD/+8Y/Mu+didDPTWODvfHt98QutY5EhYLtvhfviUDt6ntwPdJ4faYfeeNk52dee3rzSvHLzqaY91TTDHzoo/P85PdQ9u3542jdRW5Y18O7p4dP9599b1vfPn/huv4sF8P3z/afaTeXiFc3z/PQwGK3Sccb8Hye3A52TJyTap9q+cRw2bUBbosZGvf3icD94vG+ozIw8eh5Xk6DA6empKIocx/3+978/Pe3rScsnf2FhYW9vL79o3cw0Dvifb98LFvzHj1eW1P2QB9JofePi/WZyQKBsW9apvr25e1VqSld3Nzd3Nzdbzz2dvAKP7165fWnlC2K/fv/SQvPK3RPvpv+fk7tXmouXvbubX1xebF7ZNsJq9zeaKzcfb4q3pavq5ubuxtV7iwt3Nvfb3pMv9rd3N6/euyg99Grc/cyvsi/OztHNy81F6eEGieqLlUtNcVP3/P/ncPv+4uK9qxskYM/z/abvIast0Ram80S7vNi8fN1r7/X7lxbvbT3xAyPRZUYeaz0uJ0MB0zR/85vfcBz3u9/97l//+lcY1I0bNziO+/DDD1VVDY15XLiZKX/4O/rGUoj399r15pW78VEwE35Pj/RSmcB/8faGFttNPdn7eIEsLrz0/f7mHWnru5B2yzreXrm9QY/r9jeaFy/e334eLRaO7yoL0t8DzAlk6WV/PE7z7kpzJTFiHd/d/tYfwTrHJ/HmPW/ev3j1q9DCbkt4fnF8sLJ4vxkLzHr+eGXx/l06OA6P3BcA/50YBU5OTpaXlzmO++1vf/vPf/7Tsqy//vWvHMf94he/ePjwYd5hupkpd/hP7yoL17+NOHyyt/Tx3pOo0XGoAms083sGNjDi35OnbyfNy81N/2jg9Kur0UBAa9pXFyiEBKF4SKTI042LEWMs+I+3RTqEPdlbWoo3gVbBzJ8/vrywGx5ZpNvSUb8IzxeebN1On4kebt9Z2vrO9z08cmYMMBaqgGEYv/71r33+//KXv3BeunPnzhiCcjNT3vAfb0u3t2KsW9bp3SvN61q4ST4r/OFsGUhoNlfoueCTvaWF26J4J/nv9gIdL8jiuWkmpU+GwZj5zeZKAP/pZ0pq7Ig7M7Xt3etXwtpvL1xUM+CPDzRkaNDirrzrffXiyoE/9w+PPPU0DJOgwD/+8Y9f/epXPvYcx42H/IL/v/0d7YuFi82L6X8rj+lKNkmd11EjzfwZ8D9/fPnjvf3TF6f9/4IRZzhCmfBbWkRj6sXydgTb3x2f0tGNfON8D/ivfhbby3jeydKArlOGR54KCIYJUeDo6OiXv/wlx3G3bt0aW0huZsp15u+b5MMmH20thcuB420xvPYLtNU/NcOVsH/K1Tcf9o0O3mOxmd862lq6k1xuhFWTi+EIEfifJp6xopnfOv3qSuqQMih8fBBHnRgP/y72wd83t8cGGrKmiIZF3+XpZ1ejU5LhkSeDxk8TpcDTp08bjcY4Q3IzU57wD94bk4MAugN/vn1vQdrbD77VvXiyfX9xIQE/2QlvPPVODdodLxsGv9XZVz/++GHzCZ1FT79r/umL+LHZkGU/iVz1jw87HX8Oj8FvWc+b9xdFVSXfC71vivt70se73leM77aW7kQnkaffbV9pxpf96bbEl/2WddJcaYobLbosMrXNe4srj8OTSMDvCY7/jKqAm5lyhF/tP9iPRdz59vrCve3gpX6xf5N8qyO7g4XbKzePnvT9Al9H35KaFxdvX1q8s6mR715D4bcs6/TJ4+vSbX/TsXDp/sbd5Ke+7D2/1d7furd4sXnJ+4bnndUn4Les/xxruyuXgh3NpRX17mHwQa5z+Pi61Fz82Nvzr+xq+4llv5VqSxJ+y7JMbSumxtZTOhAQ9QB/7B3C5XAF3MyUI/zDQ0MJKAAF8lTAzUyAP0/t4RsKFKqAm5kAf6Gdg8qhQJ4KuJkJ8OepPXxDgUIVcDMT4C+0c1A5FMhTATczAf48tYdvKFCoAm5mAvyFdg4qhwJ5KuBmJsCfp/bwDQUKVcDNTIC/0M5B5VAgTwXczAT489QevqFAoQq4mQnwF9o5qBwK5KmAm5kAf57awzcUKFQBNzMB/kI7B5VDgTwVcDMT4M9Te/iGAoUq4GYmwF9o56ByKJCnAm5mAvx5ag/fUKBQBdzMBPgL7RxUDgXyVMDNTIA/T+3hGwoUqoCbmQB/oZ2DyqFAngq4mQnw56k9fEOBQhVwMxPgL7RzUDkUyFMBNzMB/jy1h28oUKgCbmYC/IV2DiqHAnkq4Gamfvjfvn3rIEEBKDATCmSy7wL+mehkNAIKsBQA/CxVYIMCc6AA4J+DTkYToQBLAcDPUgU2KDAHCgD+OehkNBEKsBQA/CxVYIMCc6AA4J+DTkYToQBLAcDPUgU2KDAHCgD+OehkNBEKsBQA/CxVYIMCc6AA4J+DTkYToQBLAcDPUgU2KDAHCgD+OehkNBEKsBQA/CxVYIMCc6AA4J+DTkYToQBLAcDPUgU2KDAHCgD+OehkNBEKsBQoEv6HRy+XPv36g092L1xTx/Pvg092lz79+vOjlywpYIMC86VAYfDf+qYzHuCZtdz6pjNf/YzWQoGUAoXB/9GNL5lYjsf40Y0vU1LAAAXmS4Fi4H/34/9+9ue98XDOrOXn1b23736cr65Ga6FAUoFi4Hcch8mkZzw5fBuL6u3rdf9E4NkPkfWVFTz+6PWbyOocvoyV8exvOieDKkrqkPjJ7vXshCH4YZCdVfastvzq6GpVqap1zxoYnps5BSJ0WFc5/t97BzF54ZoHv8+8BzwB2IM8INkHnvBvtV3XpQPBg1fO4SPv4DB8KvMccXBXGjJXURmQdNUKJxuDnzuPO4PqPgffvZa8Jrd65+AJLmZDARbyka1o+CnzD165rvvDAwpz8KM/CoRLA3r3AuCfjXcTrchZgQh01lXR8HsYt5+pLPjJPL/ecaKww1FgXPDblql7yWh3+7YJvbYR3EnOtL22bli243iPtpP3vJ4eOvOHlZrETyr13e619bAW2zKiH5xEJCRWtr9UBTDMjgIRO6yr4uCn0fhLfRb80ULgwrVgFGg/G9uyv9eqicJqre4luVoWyko7eCssbU2gt2qrgrCmtENMCds7al0qlaty/cBKv0eZ8FsH65IgVWVSKalTXI+7sNvKmsBHt0tSXT+Qo41KcteSiMR3x0t1I4w0HRoss6YAhYydFwd/OI37i3m6/icnBeGe/9HrN3TD7y8Bxgd/W5GkHUp7/J2wjbpYbpgxhiylsixTqAyZ47iKwqA+cDIYfuJZlPXYaqGny6JIebVbNT5527HUNYHPgL8vkq5W5csZocWbietZUIANPbVODPzXVH8nHwTmM++PAjTWgHxaMuOc3z9rHNx7gwCMTZ1tRVpOgBh46x1U+ZoeQ5/YDZmvHvjQEvhrrb778UgG1e30DqrcmhZDnzxlt2qc75rcTjtuK1IEPykcnVeyItFlroLPAfHumO1rig47LwT+Mf2q7+B+Neq8FC7iY8UsdXW5YfoG29yplHhBXK3KdUUL98tmY5kvSf2pFPozZG5VHTzvk4GC/aXB6aoVxpNdtcLXyQcIo84zbjt6bNlPfCfgT33SGFh5TARczo4CbOipdT7h72oVTtbTfZyeGO2eZeottV6VBKlBlvaWuio2jF46BZP9ULwGFuiqlXDkiUIj2w9vnGLHbKmrSd4Bf6Qdrijm7DxH+Cf513stpcyn1tBkUz1wS2ypq/4MbDaWRbo6YLxdA9mmZQcXMBvL0dlBUNxsiHREIGuASnJRYevyMgf4qbTI+xVgQ0+tOcI/0X/YYxuyyJfrOv2aZlt6vcyL4bmdYyqy4n2z8/W01AofbMjJo+K6atLdec9U12vhRnow20HHZBQgnoU1hXomjsVYSI51sC7yUnVHIx/uWqq8WqrIMmb+/jceP4cKUMzZeY7wO47zeUF/0vtwlD/p7ZlqrVziOS/xpXIt4tlxnJ6pyWui4N/lhHJVMSjt5Gb0KF+qyFryUx/rlwfD/vA+BwRuo4zuzj3PQa1CX0iei66pKf7nR6XV7pGDAsz8oba46FOADT215gt/Xyj48dwVMBvLzKPLc68IDqdRAYo5Owf809OnXa3WtzoxGmUBn+6mpwfHHikbemoF/GPvkLNXGOw2/E+NosDx0roabTjO7hdPzqoCFHN2DvinsN9t70Njxi8STWGbEHIeCrChp1bAn4fm8AkFJkIBijk7B/wT0UkIAgrkoQAbemoF/HloDp9QYCIUoJizc8A/EZ2EIKBAHgqwoadWwJ+H5vAJBSZCAYo5Owf8E9FJCAIK5KEAG3pqBfx5aA6fUGAiFKCYs3PAPxGdhCCgQB4KsKGnVsCfh+bwCQUmQgGKOTsH/BPRSQgCCuShABt6agX8eWgOn1BgIhSgmLNzwD8RnYQgoEAeCrChp1bAn4fm8AkFJkIBijk7B/wT0UkIAgrkoQAbemoF/HloDp9QYCIUoJizc8A/EZ2EIKBAHgqwoadWwJ+H5vAJBSZCAYo5Owf8E9FJCAIK5KEAG3pqBfx5aA6fUGAiFKCYs3PAPxGdhCCgQB4KsKGnVsCfh+bwCQUmQgGKOTsH/BPRSQgCCuShABt6agX8eWgOn1BgIhSgmLNzwD8RnYQgoEAeCrChp1bAn4fm8AkFJkIBijk7B/wT0UkIAgrkoQAbemoF/HloDp9QYCIUoJizc8A/EZ2EIKBAHgqwoadWwJ+H5vAJBSZCAYo5Owf8E9FJCAIK5KEAG3pqBfx5aA6fUGAiFKCYs3PAPxGdhCCgQB4KsKGnVsCfh+bwCQUmQgGKOTsH/BPRSQgCCuShABt6agX8eWgOn1BgIhSgmLNzwD8RnYQgoEAeCrChp1bAn4fm8AkFJkIBijk7zxf+h0cvlz79+oNPdi9cU8fz74NPdpc+/frzo5cToT2CgAKFKsCGnlpzhP/WN53xAM+s5dY3nUJlR+VQoHgFKObsPEf4P7rxJRPL8Rg/uvFl8dojAihQqAJs6Kk1L/jf/fi/n/15bzycM2v5eXXv7bsfC1UelUOBghWgmLPzvOB3HIfJpGc8OXwbi+bt63X/RODZD5H1lRU8/uj1m8jqHL6MlfHsbzongyoqWHhUDwWKViBCh3VVHPw+8x7wBGAP8oBkH3jCv9V2XZcOBA9eOYePvIPD8KnMc8QM5e1ez2bdHmRnlT2rze4lEzOQszp3HKerVaWq1v0JHs78aIFVnznmmX6QhXxkKxp+yvyDV67r/vCAwhz86I8C4dKA3r3wU+E3ZK6iMvDoqhVONvJ9HQyZ40tSlEo8X6rILevcau215DW51Rvmz2YPf8Mei91Pexix6pgPXOaqQAQ666po+D2M289UFvxknl/vOFHY4Sgw5fD3DTy21aqJfGW8k7Uh/9Rh7qd7yPW9h3PHibETURRdFQc/jcFf6rPgjxYCF64Fo0D72bks+0ed+W3L1L1ktLt9q/Ne2wjuJOfYXls3LNtxvEfbyXve+8iu22wsLzfM+As7qAKvTBiYSepyem09qsq2jNhPjmN3g1B1v7BDCug7a9zajt84+mj4IKnaa4QTtIOUi0sw1EPUkIHNSAhFKgiiix7F1U9WgELGzouDP5zG/cU8Xf+T07twz//o9Ru64feXAGOEv9eqicJqre4luVoWyko76AxLWxPordqqIKwp7XBoIGzvqHWpVK7K9QPGYp4NP9lwVA/oWJFVgd1W1gReqsokMLlaLkl1/SA+jSf2Lm2lLARl6/VapVSqtXo9Q6nXq2WuXPUbR6P0HlS1tVKpUqsrRs9uK6uCQNrh1yTwFdVvUKaHcNtkmzurkU6VklBumKFOTkIoryUCL9WNqMBPfvPhYGJn/j74r6n+Tj4Yo3zm/VGADlsB+bRkxjm/f/4/uPPZADpOjJu2Ikk7lPa4J9uoi4m32LGUyrJM31pD5jiuojCoD5yw624rEl/3scmswG7VeFHW6ShBfFrqmsDH1vCxRtitGrfeYvLEWLSTB7nlmHO7ayUrig9QhN7+85FY1U5Xqwh0sPCbbqkVIdrcpIXqalW+nKFcvBdwPZICFB12XsjMP6Zf9R0sDxvAfvjjHIS+egdVvqb38WTIPJ22yTtdY/Pm+2DVbakVXgxmvcwKegdVhve2IsU4JMQHVJLLAQPRAHSlcHkTtji6sNRVOkI5Dgv+WNXpfYzjOG1FCjc3LKF0mYtGh6heXJ1VATb01Dqn8Nd55ltuqavhy2mbO5USL4irVbmuaOGG1GwsJw7r/WP7UujPkLnVYHHM7jFD5pYrwW4iXE9L63Tt7WRWYNR5lnc9MQnHubYOamWBL0lrtfqOGj8KiBcKAvXmbT0RdVdX6rW18NNEKb7CYHiIDQjkbtIXcUxGvuBgkzUIsmyJePDD+ylAMWfnOcI/wb/e29UqrFfTSc88ds8y9ZZar0qC1CBLe0tdFRtG8ku991OwGBj6/hoyJ8maf9Sm63qrUeETp/+ZFbADt9RVOtcHhCXX43aPnPlpinc+EbGXLJRY93ivmLdwV8xu+E0wvqpnzvxJ+OliKHpfycqALotYQrFs0dO4em8F2NBTa47wT/If9lhKmadvYago2U8P3HOGS16zsSwmz+VDB+Ri6PubKuBthWOLhcwKuioZKxInCrYuL3OZ8EcBRqMbY2ZOsk027XGv/qo9ZmF4iMFPNiiJQY18lDio8mtacIyQ0mEU8aKW4GoUBSjm7DxH+B3H+bygP+l9OPRPem1DFvlyXfe+lHlftPR6mRfDczvHVGSFfu7yTtUq9L0lj4rrqknPwnqmul4LP9Kz3ulENzEK9A6q8bOx7Aqsg3WRl6o73uKhpcqrpYosD5j5ewf1Rot+yXOcni6LdFtD9uSyf3Zh2/6qpQ9+sgGJnS32TPKVIQY/w0MMfrJGqgiS3KK/S9XV6+V4Kxk6DB85E0rih6EKsKGn1nzhHxpckQV6plorl3jOS3ypXIt4JrOUqclrouDf5YRyVTEo7eRm9Cj5/Twt+amP9cuDYUtZL71DZu/oU2JmBcRR19QU/zOdQtjuoza2Ge/qO9VYG+O/SWgbjbLACaWSINX9rwd9bhzHbqu1siCI3p6/0tCN5C9Apj0k4Cdx6o1KoDBfqjR0OhCQNrB0YNlC4XDx/gpQzNn5HMP//lJO6hNmY5l5fjmp8SKucSnAhp5aAf+4+uGc6ulqtb4lCpnB6RH6OVUCNzOiAMWcnQP+aevmYMvhf28UBY6X1tVo1zFtrUG8uSrAhp5aAX+u4ufo3P/L4L7fNsqxPrieQgUo5uwc8E9hlyJkKDCaAmzoqRXwj6YiSkGBKVSAYs7OAf8UdilChgKjKcCGnloB/2gqohQUmEIFKObsHPBPYZciZCgwmgJs6KkV8I+mIkpBgSlUgGLOzgH/FHYpQoYCoynAhp5aAf9oKqIUFJhCBSjm7BzwT2GXImQoMJoCbOipFfCPpiJKQYEpVIBizs4B/xR2KUKGAqMpwIaeWgH/aCqiFBSYQgUo5uwc8E9hlyJkKDCaAmzoqRXwj6YiSkGBKVSAYs7OAf8UdilChgKjKcCGnloB/2gqohQUmEIFKObsHPBPYZciZCgwmgJs6KkV8I+mIkpBgSlUgGLOzgH/FHYpQoYCoynAhp5aAf9oKqIUFJhCBSjm7BzwT2GXImQoMJoCbOipFfCPpiJKQYEpVIBizs4B/xR2KUKGAqMpwIaeWgH/aCqiFBSYQgUo5uwc8E9hlyJkKDCaAmzoqRXwj6YiSkGBKVSAYs7OAf8UdilChgKjKcCGnloB/2gqohQUmEIFKObsHPBPYZciZCgwmgJs6KkV8I+mIkpBgSlUgGLOzgH/FHYpQoYCoynAhp5aAf9oKqIUFJhCBSjm7BzwT2GXImQoMJoCbOipFfCPpiJKQYEpVIBizs4B/xR2KUKGAqMpwIaeWgH/aCqiFBSYQgUo5uwc8E9hlyJkKDCaAmzoqTVf+B8evVz69OsPPtm9cE0dz78PPtld+vTrz49ejiYOSkGBWVaAYs7Oc4T/1jed8QDPrOXWN51Z7lW0DQqMoAAbemrNEf6PbnzJxHI8xo9ufDmCOCgCBWZZAYo5O88L/nc//u9nf94bD+fMWn5e3Xv77sdZ7li0DQoMU4ANPbXmBb/jOEwmPePJ4Vtav+u6b1+v+ycCz36IrK+s4PFHr99EVufwZayMZ3/TORlUUYYydq9ns24PsrPKntU2jjrOGhuemy0FInRYV8XB7zPvAU8A9iAPSPaBJ/xbbdd16UDw4JVz+Mg7OAyfyjxHHNyPhsxV1G76fletcLKRtp+nZVDd51nHmX3Z7DHxzP7wYLEKsJCPbEXDT5l/8Mp13R8eUJiDH/1RIFwa0LsXAH8+75Qh5z725RM4vLIViEBnXRUNv4dx+5nKgp/M8+sdJwo7HAXGBb9tmbqXjHa3b5vQaxvBnV5C915bNyzbcbxH28l7XsGhM39YqUn8pFLf7V5b76ulr0DkgIYWWRzbMoLHyZW+s8at7fgt7nMaewaX06NAxA7rqjj4aTT+Up8Ff7QQuHAtGAXaz8a27O+1aqKwWqt7Sa6WhbLSDnrd0tYEequ2KghrSjvElLC9o9alUrkq1w+s9HuSCb91sC4JUlUmlZI6xfW4C7utrAl8dLsk1fWDxGSd+Tyj5mif0zOUer1a5spVv8XxetONgGU6FKCQsfPi4A+ncX8xT9f/5PQu3PM/ev2Gbvj9JcD44G8rkrRDaY/3tG3UxXLDDGl3HEupLMtGYDBkjuMqCoP6wAkDweAO8SzKemy10NNlUawHru1WjU/edix1TeDDlfqQ5x1GzRH8XgxY9sd7egau2dBT68TAf031d/JBYD7z/ihAYw3IpyUzzvn98//BncfAwCscY6GtSMsJEANvvYMqX9Nj6BO7IfPVAx9aAn+t1Xc/Hsmgup3eQZVb02Lok6fsVo3zXZPbacdtRaLwD3meRJk65ow12G8HdRaPGNdTqwBFh50XAv+YftV3cJcZdV4KF/GxYpa6utwwfYNt7lRKvCCuVuW6ooX7b7OxzJek/lQK/Rkyt6oOnveZCPoVdtUK48muWuHr5AOEUecZtx09XPYPeZ5ZM+CP9f4MXrKhp9b5hL+rVThZT3e2LnMVLfEJ0O5Zpt5S61VJkBpk/W2pq2LD6KVTtOxnfkUMK2PMv/69rloJR56wtEO2H944xY7ZUlfpZD3kecAfiTo3VxRzdp4j/JP8672WUuZTa2iyqS4P2q1b6qo/A5uNZZGuDhgv0UC2adnBBczGcnR2EBQ3GyIdEcgaoJJcVNi6vMxR+J0hz5NxhPoKvNut9ehxb/vCHBNp6MinTQE29NSaI/wT/Yc9tiGLfLmu069ptqXXy7wYnts5piIr3jc7v78ttcIHG3LyqLiumnR33jPV9Vq4XhjMdvDiZBQgnoU1hXomjsVYSI51sC7yUnVHI1/jWqq8WqrIcjjzO87Q55UyX24YQeA9U6kIfHRe6Dj+8OEfaNh2xrnFtDEwt/FSzNl5jvA7jvN5QX/S+3CUP+ntmWqtXOI5L/Glci3i2XGcnqnJa6Lg3+WEclWh0Hg3o0f5UkXWkp/6WL88GL5/3ueAwG2U0a2CF1RQq9AXkueia2qK/zFOabV7Tt+m3RnyfM8gBxlBiys7htn3K4220SgLnFAqCVI9/tkhjB4XU6UAG3pqzRf+qRJqKoM1G8vMo8upbAyCPm8FKObsHPCft975+etqtb7VCZmn+04o86senqdPATb01Ar4p6hHg42K/6lRFDheWlejDccUNQShjkkBijk7B/xj6obzrMb2PjTiQO48NZ1NX2zoqRXwz2avo1VQwHFifxRHgY/ngB8vCRSYWQXiqKevAf/MdjwaBgXSwMctgB9vCBSYWQXiqKevAf/MdjwaBgXSwMctgB9vCBSYWQXiqKevAf/MdjwaBgXSwMctgB9vCBSYWQXiqKevAf/MdjwaBgXSwMctgB9vCBSYWQXiqKevAf/MdjwaBgXSwMctgB9vCBSYWQXiqKevAf/MdjwaBgXSwMctgB9vCBSYWQXiqKevAf/MdjwaBgXSwMctgB9vCBSYWQXiqKevAf/MdjwaBgXSwMctgB9vCBSYWQXiqKevAUDYEZoAAAAdSURBVP/MdjwaBgXSwMctgB9vCBSYWQXiqKev/x/OtDZQbovFNQAAAABJRU5ErkJggg==;" vertex="1" parent="1">
          <mxGeometry x="636" y="30" width="340" height="235" as="geometry" />
        </mxCell>
        <mxCell id="gF0N6pOtgDNosUnVR9sg-2" value="" style="shape=image;verticalLabelPosition=bottom;labelBackgroundColor=default;verticalAlign=top;aspect=fixed;imageAspect=0;image=data:image/png,iVBORw0KGgoAAAANSUhEUgAAAUQAAAByCAIAAACk3D+VAAAUh0lEQVR4Ae1d32sjR7bOf7SgJiN0r7gCB8cQIxKasOmwjF7kB6MHgzMPRoQRBHm5QQtChIHFi0Njy0YrD06j6zSzlhkQYmSakaMVjtIZpMFJPelh0UsEm0Uvfan+UX1K3dbYsaS4Nacwo+quqlPnfKe+qlNVEvPOCBMigAgEFgEDpHcCawUqjgggAiPAZeMdggkRQAQCi4ABEpI5sG5ExREBQgCXcWXGAYEIBBkBJHOQvYe6IwIAAQMkDLMBMJhFBIKGgAESkjlo3kN9EQGAgAESkhkAg1lEIGgIGCAhmYPmPdQXEQAIGCAhmQEwmEUEgoaAARKSOWjeQ30RAYCAARKSGQCDWUQgaAgYICGZg+Y91BcRAAgYICGZATCYRQSChoABEpI5aN5DfREBgIABEpIZAINZRCBoCBggIZmD5j3UFxEACBggIZkBMJhFBIKGgAESkjlo3kN9EQGAgAESkhkAg1lEIGgIGCAhmYPmPdQXEQAIGCAhmQEwmEUEgoaAARKSOWjeQ30RAYCAAdIUyXzV01/p5l8PdLZA2de6/nqSOb2uvqCWT7Iay35XBAyQpkLmq7ZaSS7J4aWiKBZFcS8akqX0aeNGI/tNDPldkeI6b58mQ4c7De4deLjIx+Wk3AFvMOsg0Ht1o7HgVA/Q5+np6atXryYoXKlUfv755wkV7lhkgHR3MnermWJYfCrXoEkddbskPbl4swvbp8nkafuOBs2nOSWzHN54rvt115ZLoRCS2Q8aQqoZOVP1Lwr022+++ebBgweffvrpjz/+6GvIV199JQjCZ5995ls6lZcGSHclc085DseV6htY+7rd0FT1XFXPa80us0FvnKsHiigqB2ZRtQmCWL1VtV424BxhNb3qNS8cabSJ3jhvjDGsd1kzm6u1S161Vw31ZbNHiFmh0e7UrEemk5lp185r7Sv+HSGUzKVkUk4rrgl2Hf35RvQ4/WiMzP5WE0J6zZcqtetKt2HRGrqnO2ZCtdXmbaCd9vRGleKpVlvU9N5ltTpm6etmzaygXlB73cQhoKrnVRdhp4kl021i5ZzSNwnkMO9dVtXzJ+vy+hNLGVPbcclBfdZ1XRRFQRA++eQTXR8bgsRicjgcPjk5mZ2FBkh3JHN7R/Ib3FD39ou0KC8lj7e3K9vbx8klOZ7RrNHVPKpsp0srK6U0LarsVG3eNg/K0aj9Mv1Qjq4/cyP2XmtnXQ6L5QxtomxIe+L2+RE/8TePnorR4kaGysxsHEbjT4+aTCEtEyo9kSvi0uFGpnLU7Cppef2Ad0PvRTpaPuLf0faUzIraeCbFK/zk9bqaKSYPOtUMIPP1VlNJcimUOT1Y37NhSZeWwvL6waWj5VVjpxSNUg1tE8Il2TWBtBVFDMsP07R0O11aWirL6jMuwOlp26Isbii0QqYsRosZhdljIyDFLYRNjzyqN5vPH8VtmenkXjhaPgA9khsItCA1nSKHRQciXdvZrmxIsrRhartdh1IdewP82el0PvzwQ0EQPv744x9++IFZ8uWXXwqC8ODBA0VR2MtZZAyQ7kZm/flG6FjhJn6vwnoTrnK988zKXr7mVPOE2b1qJS6d1FyZV82d0orNf8q9eOacDUxCrppyORp2ozjaPK6ooIauKnGXflomJIeSz9whVTtZkcAjIfpBeSX/0tEPfJpkrhJSyxelHbAzqJ3EpWcNM5gEe+ZJVpsx+V5GBUFH7SQePlYdq3vtS2ABacqlEAvvG88kym2wkuvnGVEOu7uVzkFS3oAzlH6eWSnJtsoeBKhH5HD48EnDldnYOQynXzjq3FIg0Q82ZAjRoobZ1uC4vLxcXV0VBOGjjz76/vvvCSFffPGFIAjvvvvu06dPwQCaSdYA6W5kdsb3rdRUM3KSDbVxMr862pDTKoi3qWgtEzaXSv+5o70jMjLT5uMrLXmtpOWNI4s5dCinFSi/vSOByYVc5OOHOy7XgWXMWLp0lw5sbnTkZHG7SgVyKzNoZ2Wh1ZTMIuU/SJfyQ3n7uo1l8/RhuGIV1vJ7IpxKTBE95TjEyOyZnqxYYCV/YdalCGRU0DOdnvZCLnXNosYzceXEnnJvIJCHlBBVCSXP2IS32GQmhLRarQ8++MDi8+effy6YqVgscijP5sEA6W5k7r1Ih/wiUl5vvfb8SebpQ3rQTf/iURiOjh2AXeRX5CWnplVfFItL4SI9Rq5Wwg9PvURT3TC7IycPYURqKdKWS+Fta7HVMqHxCj31OLxuH2v11OPo2LBmtjAyE6Ifla1qPcWtP0bmCVabYbbGBJuZjpxkUxIhpKPuVNLrNmKiuBcOKSaZ9YPkOBVp8+bpQ4fM+lE5FN1j0NmZuOzQlYbZziptq+CjD2/sbQWSquJOLot7AAY9+N13373//vsWjQVBmA+TyVT/ryn9YN27EkIbiRn3HitN93KCG/TjK/Ol/LCYr9r31dattflvl4Z87TO6a+XEE0LomuYclnbkJFxm7aqNnaKzmvkMZUJe5les1Vg/WPdpbksB45t2mixuqy8ycbZEcyvzZKt9yEMgmWlYm9y5aLNrbdB1dVt+KLPdtYMFXQmdSwFVCW08bzp3/i6GPSuK9kHARx/QI11mbynwLSQzIeTly5fvvfeeIAhff/2145iZfxog3W1lJoTQzR53POOob2/AqttgHaZlNOh195bt0yS/2Nbye3E7IHQkuZ90xCf5odxTlZUQIzONGJ0NNmt2kY8zivoMZScKfUlt4ffPTATNwPFtGR4a3xkyuyZb7UMeSGZzzuIi7sYz0V6ZSa+qrIxfH1zKSdkls/583dqVcNqzBx8EfPSBxt5eoA+ZPXMwU2iRMufn57u7u/O0yADpzmQmhB4+hw8zBxfODcpVr3mefyiLeXrPrB+Vw0kWG19ZJ7Fs0BO6Dbbngl7PvPLpaZl48ZF84ZwAvarJT9Nsj20euoobqnmbVZczpaWkknFXZkJoc3l9x2muX8iPiuz8nG6/PUEmhb73Ih2+5tqJeQaOb/qyW5PPwEEdtzJPttqHPJDM5CK/UnSPx/QLeoDvkJn2mz8MR0sZuU6vpg7UDbGYyTx1yUzogVlUqqjOVV+veb69ceKcwPsg4KMPb+xtBY6R2Zxhz83jtG7POVVjuGLmLggYIE2BzObFaf3JxmE0JIfMv2i8nFfYtaeu5ktL9i7uMC23FHiFY84FS2F5aUmOJs/s/bB+IacPl8KmtPBeMvPcvZqidndqB8/Mi67KjtLWORqYsJjNbWWih2l3XjDP0nzJbB0CsSMfU8z4P/z4Hi8dPwCbZLUPeXgreo3TtCRH4+aeOVlRq/RWDK7VeuNcfmJe9jw5rbavxshDCP1O3nrccYf09Il7vv9byHxbgeP69LS8JIeie0vR4rbquaX3QolvboyAAdJ0yHzjrmdR8WV+xTweu5vsWn4P3qbcTdi8W+sHZed8a95dY3+/LwIGSAEjc/vgmF9pX1Xzh1FwC3I7ZHsde2vQPE1G3Wve2wmZc+3ey/yGG0LTzunWw74em7Mu2N3vjoABUsDITJwI3Ly+or/oEB/d8BcdPrDrakU04/+l6GG+FpTwzwmhrZ3LkhyKlvJuFO1jJr5aYAQMkIJGZtst9s8tp3GY0tV1894rcA7vdc1rJ/gFmMDZgArfFQEDpICS+a4QYHtEYDEQMEBCMi+GT9GKtxQBwGUDyfyWDgI0ezEQQDIvhh/RCkSAIJlxECACC4IAknlBHIlmIAJIZhwDiMCCIIBkXhBHohmIAJIZxwAisCAIIJkXxJFoBiKAZMYxgAgsCAJI5gVxJJqBCCCZcQwgAguCAJJ5QRyJZiACSGYcA4jAgiCAZF4QR6IZiACSGccAIrAgCCCZF8SRaAYigGTGMYAILAgCHJlHmBABRCCwCCCZA+s6VBwR4BFAMvN44BMiEFgEkMyBdR0qjgjwCCCZeTzwCREILAJI5sC6DhVHBHgEkMw8HviECAQWASRzYF2HiiMCPAJIZh4PfEIEAosAkjmwrkPFEQEeASQzjwc+IQKBRQDJHFjXoeKIAI8AkpnHA58QgcAigGQOrOtQcUSARwDJzOOBT4hAYBFAMgfWdag4IsAjgGTm8cAnRCCwCCCZA+s6VBwR4BGYJplP2t9++rc/Pfhz5A9fhObz9+DPkU//9qdv2ypvFD4hAm8jAlMjc0n7+3wI7NtLSfv72+g9tBkRAAhMjcwf//WPvjSbz8uP//pHYBRmEYG3EYHpkPnX//z6X/8bnQ9vfXv57y//59//+ffb6EC0GRFwEJgOmUejkS/HfF7+o/kL6PPqn6E/8G9++el581dQg2avKjfYhDsW4Sci8JYiAGnzzl0w8OGtl4EWb//1f3blf1798tNfLDLTDFf/Lyalb0Rjq+GNlB8OnDS8UX2sNAcEhq3dtbXd1u090le3pC21PwcVg9HFXMlc+ZffMmsyfOZk7mu7qeVIZFkykxgTItJWuTW4qZeGg9uPtRvJHg5mJflG3U+h0m0t8ELZLW9ulrtvVMXTcFDPbebqN/bhGzsIeoX7QmamBw286RI9zZV52CpIMemx0oF+H3TKm4mbrgetnJBrzcLXfSWVUgK9ttzWgt8M5W9uOAu/3UuZjESGYcw8zDZX5l+a/wjlfrI3zvMIs4f1bETM3SiKG5KOZqYOYQvxkLQ0bX9T2Ny3irpwRuB9Oui2zDqtbp81pzWGfbtAA3JHo0FX09ScJOVUq5Xb58hPEbevsdJBVxtXytWE13bQ1Vq0G1NCd0A1GG9KC1s+b+1GVFVm3/UWMBVZXYrDNVA6WtkWeuG6pqGfoq7lnA+8Ml04FyY3VzLbZ13WnplF1ywzmz0zKSci2TpHLl/vWcv3Vq5QKBRyW1JMytXNFXPQKhcKWwkhsUVLCoUz4td82Nlfi8USVvNsajkmFazpo1/PSrHlVNZsm00tg3mFnBUK2dTqql3oBP3XKWJ2O+yWN2MRyVEzsSwVtDMubLA0WWMdxhK7HWZ9Kyek9pWCtEw1PSOjbjmxutvhDSLlhDj+bjSoZ8WYLbSQ20rEEjQu9rVg2C27UNCqkZRiYXYdlFQrJzzplhMx2zyKzvJytj4YXdOwr6RgwHStD3xl8kYvxNN8yfyF9+zaPgBjejib52mF2YOzLeEGXO6rqRh3ljLQcqtshI3eEOLR1s6ItYYFUcvWXDDqExhFD7XcKqSPJ0idqIgVZGhwtSXKZiziDmkfTZRULOWcErVygiCkyu58NFA3I1mNkX00GnV2VzdV2AM1qFuWpH3/Xa3HgtGwT2B7oqSErTP2xgdKl8zDelZ4fM3M623IkdnHcssHk2QuBIeZEYxE8wiz+fPqKX/lk5nEZziH80XkrOCshp3d1QQY4ma9vpJitPMOJCiqs8sRFBZ581pOYNwajcapMFER/4mpW5YYmX016ZYlxxBKZn5qG2rZCCDv4GwrxpPbtICKyHGTCDNs3AJWwDJEWYsU2ImDD5TdsmTPm5R4cK5hMkYjnwmV1naOMnwtN5tPkgnlBz+/8GSmrgTrAvSYuyBQlsRE66Db/VeMsYHvMwJdSf4cY+WDjrqf21pz5IoxN6b0kHmyIq1CZM2OWJn00WikuWE21VODZWaeGmqtza2c4JFAQKhNygkzfvaIGHb2U8uRmLi2lSuUVbj19yNzXysXspuOxdIyCB18OMnNaOQsm4hFlqXNbGFf4bbuPj5wX030wfUyPXYG+sXUyHxvv845UDcFsPQAb7lkpnzYUolzB+1+OvGnO2pAe5blF1v2mmaGrYIoZuvEvX8CvY48ZJ6sSF9N+XCVKGtsfWrlfGYuOp/ZyzHfua2pG2r7htjAnuGAdLS6UqBHCs5FgIfMZrxb7vSZyXxw5AOlR8RwQI8M1XJ2LRbbBFsEZxl2VAKyJvjAqu0r0xG0GJ9TI/M9/qFFZ1dkZzDQa2Bk0/F8zfpttqCjxrviOcLofOHur523VsNChC8xgz7ntMckM7dUTlakr6TGLaGbcIGRmS5QfH+j0eBsiwXSwGSg5rCVo/vka0JsUJFlQeTcV1KcBeaMw4Jq2gLuA6xoeQxKD5lZP3RyczYlPj4AZJ7gA1ealQMyx4uC/Tw1Mo9Go2/b6u/yE8iT9rdvcAJR6RHwY6XDriuG/Y7yWIywaX9ElFQsUdCc66Eh0QpbzuJjngqt5qxzouHQWa5Bp7S1lKs7rQet3YRoHmdTJoGjsX49J0Ug3Sz2mQdStuDJipCzx2JE2to3b7PqSm5tOZXLuSvzyLTDOYinK79WSICzOX8yj0Y01E6lrgmx6alYOVc277Qsm4mSYvODx4LO7qro7q/pdT48oaMHbONQumQenBV26+5l2UDLic52368hIDOz3OODSTKBCxcgO00y3284+tr+VmI5IlgpJm7mlBY8Z6YDf3dTjNnlia19DRQPW7uJmBBbpndO1xwEmV8xM1tHllM5tWtz3vzqWcz65lkiq3Tr4B6GIkbULfrNtOVYLKXap8yTFKEE7ahl65qsTAc+H8WaBKZfdnM02YVmXEfmEV3YrtmNUCUHHTXHsBFiCe7Lc+MWDLtKNhGzzyBSu1pr7AbJA6VL5hHnJYpj3T159/qAI7PHcscHk2Te7zF7S+3eHjLfEpjgVO/srko3+DLkZIPcffPkelh6jxFAMt9j53hV66vZLPetVBrQu9fI3gaT3/T7VvAxbOVEz9Xc5KZYev8QQDLfP59M0mjQUbIJ5wcj5s9FHitOQD+pnW8ZUVNmNCzGxMf+X2zzbYYv7ykCSOZ76pg3qGX9ltPnKO4N7TzFVNAUxHjk4ov5I4Bknj/m2CMiMBMEkMwzgRWFIgLzRwDJPH/MsUdEYCYIIJlnAisKRQTmjwCSef6YY4+IwEwQQDLPBFYUigjMHwEk8/wxxx4RgZkggGSeCawoFBGYPwJI5vljjj0iAjNBAMk8E1hRKCIwfwSQzPPHHHtEBGaCAJJ5JrCiUERg/gggmeePOfaICMwEASTzTGBFoYjA/BFAMs8fc+wREZgJAkjmmcCKQhGB+SMAyfz/4DGVNIv6djEAAAAASUVORK5CYII=;" vertex="1" parent="1">
          <mxGeometry x="644" y="280" width="324" height="114" as="geometry" />
        </mxCell>
        <mxCell id="gF0N6pOtgDNosUnVR9sg-3" value="" style="shape=image;verticalLabelPosition=bottom;labelBackgroundColor=default;verticalAlign=top;aspect=fixed;imageAspect=0;image=data:image/png,iVBORw0KGgoAAAANSUhEUgAAATgAAAB0CAIAAACe8LmeAAAMOElEQVR4Ae2dzWvb2BqH+2d0OYvh/gERjTEYzKSkhprQIgpVF/XGWRQvWtwO14TSQHEWxQzBlLsJuIh8kbqZRoQgSpLpkAlNcJNbYVLXDXYZopULxVDG0JmrTS76PrIlJ5MoHuvkZwJRjqSj8z7veXSOjlx6QcYHBECg7wlc6PsWooEgAAIyREUnAIEAEICoAUgSmggCEBV9AAQCQACiBiBJaCIIQFT0ARAIAAGIGoAkoYkgAFHRB0AgAAQgagCShCaCAERFHwCBABCAqAFIEpoIAhAVfQAEAkAAogYgSWgiCEBU9AEQCAABiBqAJKGJIABR0QdAIAAEIGoAkoQmggBERR8AgQAQgKgBSBKaCAIQFX0ABAJAAKIGIEloIghAVPQBEAgAAf9FrVf36+6B16rVT+577NJP1eq+9lNzVFJ+/YAV1+zDsAUC54uA36KWV5MDfGxyx4XimjCQXC277NCL9jf4l1yEj4zMsuwsy06HQtPJyW3jeLVa4RSifjrGPcKzZdgBAt0JrK6u7u/vdzlmeXn54OCgywFH7vJZ1I3JaW5SHIsUX1Q7Lt1N1D0+yUduL4vl3+3Tqv/lH8zf1Ss6pajl1WS3e4R9TWyBwN8lsLS0NDg4eOvWrY8fP7qe+/TpU4Zh7t+/77r3mIW+ilp/MxZ5KdZlVdepjrHTW9StqflQcnW3S5MtUavSmrgtittrW503sNruhrpLFEtbZXuOXd3aFucElhXm9BN37V1dLohdIHBMAtVqlWVZhmFu3rxZrbYPULqloVBoZWXlmBW6HuanqLtT88akt7yajAlrjqdMWfYStf5mLDQ/teXaPLNQE5WfKw4NLYxNLE9MvEwO8ZE765bb9a1XtyM8d1eYmFieGF/kInyS39NP3n2xPDG2EIvpJy5PrXUabl4Fv0HgRAQqlcq1a9cYhrlx48aHDx+sOp48ecIwzODgoCAIVuHJNvwTtV4ajy3wxjj6SRzj78w57y5eom6sxNhX3T2VVVH52Pg2UePO5Ag/JprDY72yS+yTd1eTA8T0G1Pfk/UOnHVsAnt7e/F4nGGY69evv3//Xpblx48fMwxz6dKlxcXFY1fjeaBvolbniqGxN/YgurESG1nZIK/rJapXOXmuKups26i7y8+HJtxWrdQT9/jb/IS1+gRRSZjYPhsCkiRdvXpVd/Xhw4eM9pmdnfXlan6JWp7ipicdXlbn7hAjnuw99d16xcacSndGZj2jErvK/MLAeMks+L0svpoYK2orxuq68VCIH4eoJh387g2Bd+/eXblyRVeUYRi/LJVln/6TqLr4MjTAD3T+kGutniPnzmSsTfIOqkeJWp5biCRfbZStt68VPglROzCi4OwJ7OzsXL58mWGYZ8+e+Xg1X0bUjsHTaKDTQE9R5eqLYmikY/FJrcR8W3OEqNU5Ukv1xPIU6xT1dtdVZR+JoqpzT2B7e7tQKPiLwQ9RN1ZiHnNX9cH17mtjlcdbVFmurU3MhkaK/xH3zKfcT+WN1Qcs3+U9Kjn13ZicHrGXmvY3pooRcupbfX13YIHX1ojr9Zq/BFEbCPSAgA+iCp0LvFbD9Vcv+luUbqKqJ5TXVseT09YUeoh7ObVmruQeMaLKcl3ix+YjkWntGXVhUtxxTH1leXeuOBTih4b4SNJ+qWM1Exsg0OcEfBC1zyNE80CAAgIQlYIkIgT6CUBU+nOMCCkgAFEpSCJCoJ8ARKU/x4iQAgIQlYIkIgT6CUBU+nOMCCkgAFEpSCJCoJ8ARKU/x4iQAgIQlYIkIgT6CUBU+nOMCCkgAFEpSCJCoJ8ARKU/x4iQAgIQlYIkIgT6CUBU+nOMCCkgAFEpSCJCoJ8ARKU/x4iQAgIQlYIkIgT6CUBU+nOMCCkgAFEpSCJCoJ8ARKU/x4iQAgIQlYIkIgT6CUBU+nOMCCkgcEHBBwRAoO8JQNS+TxEaCAKKAlHRC0AgAAQgagCShCaCAERFHwCBABCAqAFIEpoIAhAVfQAEAkAAogYgSWgiCEBU9AEQCAABiBqAJKGJIABR0QdAIAAEIGoAkoQmggBERR8AgQAQgKgBSBKaCAIQFX0ABAJAAKIGIEloIghAVPQBEAgAAYgagCShiSDgj6iLOwexn3797sfli/eE3vx89+Ny7Kdff945QApB4DwQ8EHUZ7/VeyOn61We/VY/D3lCjOecgA+i/vDkF1eFelP4w5NfznkKEf55IHBaUf/863/f/3ulN066XuVfmZVvf/51HlKFGM8zgdOKqiiKqz9a4d7Wt0P78+3LI/0J9u0fduFn2Th96ctXu1TZOiCO0cq/1ve8LnSs/LWaxqflOFya4R6tNxxF/8gfLakwOlqQnI0jW9JYf8TNSGTJcbdbzaZ7tZ47jlszjusdgbMXVfdTk1OVTRPSsE6XU3VVrh0eHprSPv+sbC1pi1LWWV3XqI6g1SgVUsPh8DCnfdgoE01khZrRd6UckxJOLqp/fb1WTKeLNSuUVrtcDSHF5P6+qC0pF2eYtNi0arY2TlijdT42ekmgV6Kafj7/fHh4+MdzUzzjT91Ya8g19148tagtKceGuUdCheyojVJ+NDFT0VQ9nagNIXUazb0TLeXarTyZVk0xHc7OFBJsodJxsZPV2FENCnpCoFeiasrV3gpuoqrj56O6Ys98LWNPKWprMxtmc13mk4piitqSKyXtU5E75omtRk3q3NmslUpijuNyorZPajuvJUulGnl7UJSWLLkcZRQ1ayV9Sz2xNJNm0jP6NY1KLK2aRmOkttrdukutmEgUZUXTtdQel1Wj25ko6zMCZy+q6Z8+3XUT1R5gL94zjK299WHqKxcT4exme/90JkAVdUbIc8OJTC6fz+cyiWiYy9tuNzazXHQ4lc2rn2xq2BZfXlcL4nFjX1FyWqnIuiT25ZpimmFUb+xPU0zHjbHOvGMoTamYz2cSTCKjXTO/rp+gaSWI6WGjMWpbommRrM2uV99qlbJhfdKrToA7hn6I2g6sn/8+e1Gt4VGf0JpzYHVlyHpGXfry1XxA1YdWP0RtrmeYozxVR1SGSZH2NMRMmNCpIZNPsK1SLm6qpShK16kvYaHaAxpCKpHLpTniQbQppq0rWaJqvcV96svEcyXidlApsOFsx0Bp9baGkIpb0wm5mCDarR0DUS1UAdjouaj3BP3J0xhodT91Y82x17DUPLLLeq++DuyB+VgdURW13eZSjkmJpJ7kBRw7u4qqzjhtOeRiIiU0XIqMymtFjhjz3EUlJVdPk4XRcN5rgalSiFt3AUXRpr+ZdUJz9c7R/iBMBortviJwpqL26OuEHkBbm1nG2TVdDnQOZPoBzrJmRZzJZUb1NWOOY6PEMnF3URX1GdlYqa0U4tostFXKRo2iWpEjVmOdVbmL2r7q20U19dJE7WpgbeZCVJfu0L9FFIuqDiLuLyaIdDil1HcQZS0pz7LZTdl+WULsPGLqqyiKqqU2Oa0UWHOSKuXMojg5lPsrqlxMMG4fey6sNR4jKtEV+nvTB1H7+CuE6lNcSui24OLwzkgVUSblw8SEVFVvM+scUUe7Vq9ohjZNX7ULVArxzHqTUFcr7RS15Og5bqOnW5l5CXLaa1bkvHN5nm0ejt99RMAHUfv6S/mymI6GEzmx0jBXf1tyqTAa5Qre71EJUZvrGdL0xmaOCxOiqutVxo2g1TIv4MxupRBPpVKO95jq42pbUfvgXCnE4zl9ncio2E0rtzL9cdRrJlEpxK2meJztbD7+6hMCPoiqKMrP/9A/c1s8zj9za8mbM5lE1JwJRtl0YdN66UlIaWXEUaZ9rymqf61J/UbTpvOrTLKYUb/1NByNpjxelaiz0LbhTVXEXmbSr+scUZWWVEhEmejwcJTLayu9blq5lSlKrXOB1wpNfWlkrhS7n20fiq1+IuCPqP0UEdoCAhQSgKgUJhUh0UcAotKXU0REIQGISmFSERJ9BCAqfTlFRBQSgKgUJhUh0UcAotKXU0REIQGISmFSERJ9BCAqfTlFRBQSgKgUJhUh0UcAotKXU0REIQGISmFSERJ9BCAqfTlFRBQSgKgUJhUh0UcAotKXU0REIQGISmFSERJ9BCAqfTlFRBQSgKgUJhUh0UcAotKXU0REIQGISmFSERJ9BCAqfTlFRBQSgKgUJhUh0UcAotKXU0REIQGISmFSERJ9BP4PBhTPrRZqSK4AAAAASUVORK5CYII=;" vertex="1" parent="1">
          <mxGeometry x="650" y="520" width="312" height="116" as="geometry" />
        </mxCell>
        <mxCell id="gF0N6pOtgDNosUnVR9sg-4" value="" style="shape=image;verticalLabelPosition=bottom;labelBackgroundColor=default;verticalAlign=top;aspect=fixed;imageAspect=0;image=data:image/png,iVBORw0KGgoAAAANSUhEUgAAAT0AAABxCAIAAAAoFONpAAAQkklEQVR4Ae2d7Wsi1x7H+x9dGNmd3ou+SaBLWkKKrK0VFgqC7IuQF943DSXCotxbbyEvSsIlpOV0MGuSVevqRhK9u0PaaNC4WcVG92FKuodlsaT4pm/uy17meUYnMVmNZm6+IazjzJlzfudzzsfzMIZ9j+IHBEDAbgTes1vAiBcEQIDCW3QCELAfAXhrvzZDxCAAb9EHQMB+BOCt/doMEYMAvEUfAAH7EYC39mszRAwC8BZ9AATsRwDe2q/NEDEIwFv0ARCwHwF4a782Q8QgAG/RB0DAfgTgrf3aDBGDALxFHwAB+xGAt/ZrM0QMAvAWfQAE7EcA3tqvzRAxCMBb9AEQsB8BeGu/NkPEIDA0b4XWi5b17ythyJhftYTjs7IUXgy7xLNKwzUQGD2BoXm75I65lV/OyZAJ/W3iQX2o9SqkGTaVPk3N1pM5loQKQy3x/yYzfKJdZlPm8/kXL16cUUImk3n9+vUZCc5/aWjeGoosh5h1MlxXDbnTQpphyPTiU+M59fiXQohjGHir8jC/FkIgYyYyvHc//PDDzZs3P/vss+fPn1vm+s033zgcjmAwaHn1oidH561Qf1bI7edy+7ndhsVgKbRKBelq4VmLUio0CgWrZJSK3rrX/dP3V0o9ld19NO1Nzd/p6p2vqrtSzrlyqf6L8R6hepArvaD0uFUqi4HlyqVWzwxcaOzKYRee1Xvj7h/2L2rpT6um21+UcgfiGTX/ghiJ/KPeIqNQz6qv6tVcnwxNnIVGIbe/dJfcXZJRSJDVHPE6OIFWq+V2ux0Ox6efftpqiV3Y+CNLy7Lso0ePjOff+Xg03rbS8zHnxPp8JBOJZOb9HDudLhg6cT2ddrPkzrx4NTK/PjGxSXLbfn/eeswupBl/vpROOf3/MSc4Iv5YpFAnft1bobR9x0m8c2kx51DC6yR+0tBg1ck6E8qv3eUm/CmlaJbcXdMSHJdW1p3O+3MhMbDQ3H0nu06q2t20f9hCOeImbqX0TbczFkprLSrOSpZIxjstY0n5J8j033+qVp/8fVpBIYJybq4ZSqTnyNA9IQecnvMS1p1ROLfKK5HMnJd45yTIkZ+MuepVwtEABI6OjmZmZhwOx+3bt5vNppbTV1995XA4bt68mU6ntZMDHozGW1qvHhkCfZULcbe0iW5p2yv6YBjoWvshN2HP9LZOWw/myHz6lZZt68Gmc74o0COjt1Q4qmqmUEqreT+z+UA9I3rLcKGcNtBRuvtomk3l1M8Uod5Q04rlVMk6M/dEOdM/7KM1P5lbM2TQ2g/d0lYQ5RBDGP+27o+wH7pFWPb+UklHUVq5z4qVkn8umCFtrc0R74r+4YZ5stZbLumg0Wh89NFHDofj448//vnnnyml9+7dczgcN27cSCQSQyx0RN52R5xLM+poubvIuQ19S04ppFNMH28pLW17p9XxRCiHptfXxC5q9ra74Aa5QyLqrpXorXvbPN02Jei+u5q/w2bku/uHvfvoltegpZRXnayrH1iit6GcqYTdRY7RLZUulbbdtx7tyqnOkeF82rQQoAbO4goD61sT70t58+zZsw8//FBW98svv3RIP7FYbLiFjcrb1tO1pfTcHXXPeZqoWrbW/N3dV6xhNX+nr7eU7i7G5PGktHJfHVi6vD2u57Yj85vqXndswrDbLM2Ty2agXbcf5VYy83fVsN0cy6Qlb/uH3XqwyTg5rVzlYJqoZlrs3lnEU8/7lRLpO2Qo7gUYMMJbc1tf1rvDw8MPPvhANtbhcAxdWkov5f8r6OmRwkFkOjafbujPXQ39qRAhdwxrToWlOFCctb5VJn/CvjjMFvJ+beA1j7f1tXWnf3u3rj1DNmlp4YnpdnFe6l95Wm+pg5jBov5h59LM3JNq7zNt5eFzDyVKLeIxlCgOnhfMEN5elpr98j04OJicnHQ4HN99912/tO9yfSTjbSHTtVg1ToOFQvqWeZuK0gbxawNyT60MzlMqjkIsY1zoGs2URkV1VixlVF9x67tWFp4Yva3/RxvrlCBK22519OsfduvJXVZfS/dU4+LeXjxDC2/NM/OeqHBiaAT29/e//fbboWVnzmgk3orfhTDsPNV/CrmNWr7aXbzPOtdD5CfxYcxabs4dC4US5xpvxco00itFfe/FKJ44keamQ/vq1tCL3ZVN5wXmyU8Xb8X0XavW05W7RJ0nU0r7h10l605vJldVhmuhuh+Ze6RupF/cW2lj7EIZdnm7u8jdCu1Lu1yvBHWzy9wf8M4eBEbiLaX1XMY/oXyJyjufL6W7p8Gt0j5Zkh5RLOUL9eOuDmdiaR5vTZfEN8bxllLhGZm/71TWmeuLuQPjbnOf8ZZSoZSf9xLntLS+9WdyBX21KZfbL+zjei5zd5owjPjr9CaWcupnCH0Xbym9WIbdGIXyopcwTm7CGYvk9K34HoY4cdUJXIa3Q6hza21T3b8ZQm4jy8KmYY+MDwoaFoEr4K1wsDinTybFionfPYhFCupu0LDqOtx8bBr2cCEgtzERuALeanM/eTY7QRjn+qI+nxwTmP7FqlNWm4Xdv2JIcfUJXAVvVUrCK+kvAa/2MKsGq7/aNGy9AjiyH4Gr5K396CFiEBgPAXg7Hu4oFQQGIQBvB6GHe0FgPATg7Xi4o1QQGIQAvB2EHu4FgfEQgLfj4Y5SQWAQAvB2EHq4FwTGQwDejoc7SgWBQQjA20Ho4V4QGA8BeDse7igVBAYhAG8HoYd7QWA8BODteLijVBAYhAC8HYQe7gWB8RCAt+PhjlJBYBAC8HYQergXBMZDAN6OhztKBYFBCMDbQejhXhAYDwF4Ox7uKBUEBiEAbwehh3tBYDwE3uvgBwRAwG4E4K3dWgzxgkCnA2/RC0DAfgTgrf3aDBGDALxFHwAB+xGAt/ZrM0QMAvAWfQAE7EcA3tqvzRAxCMBb9AEQsB8BeGu/NkPEIABv0QdAwH4E4K392gwRgwC8RR8AAfsRgLf2azNEDALwFn0ABOxHAN7ar80QMQjAW/QBELAfAXhrvzZDxCAwTG8T5eQn//beiLz/l3vMaH5vRN7/5N/eZDmFhgSBa0VgaN6S3e9H46plKWT3+2vVbKjsNScwNG/dy7ctjRrNSffy7WvekKj+tSIwHG9Pfj/56z+co1HUspS//dN18vvJtWo5VPY6ExiOt51Ox1Ini5M71T/+1H+Oa8xfzGf++PVJ9b96AunoOHOOBfN1bkXU/boRGK23sqK/ZxWfa8d//Pq17K14YJLza8necxkr33iulmu/pfSN9PvbudIjUR8CjVVPKisoiYRkyhPcU9/1uROXByEwUm8zv//55589KkoyX7q3wuFygGNZzuOJeTyxGRdhPQmu+Oa87Npv2mcn7Zvg7Nuv7tW3tH3GAqQWZjbiqql0JzsbPqD96tKmb/vA7JcDrl8Vb7WZsThzFgfeYY637eKWxxX7In5k6FIntPJ41rdVPF8PKoZJuHhWb+mb4Kybr/K1YpYJ104P0OTt6cmMV47jAV114wUcn5/A6L39o7rD/OtXZZE7inly+2CBjYWLb88B5bdm5ZDnD3n+qKn53BaK/OHqLJldlS89N8gvZXl6grbwvCjmdshXBC0/PYy2UDFepc/52hnj/wmt1aTYajWha5JvuERNYyOtHRab5sRitHoV1ARWFe/81iwe8qsJZjYvlXtY6655p9MxedtuNkxV0CpYfK7Unz7n+b2wJxZOSliKVlh0QDg6lcBIvVW2oOT1rTY91g4uZ33b5OLswoGFNl1M2rWoh3iC2Wh0KxpOeFyx8M5rMQmtcdGtoI/4glvipWi52XWjdYLXOwsx1+TGgnjL1kKAY2eyhrH9bY1LuNhYMCxeDQfjk54tPnv6yNZurH5OXL5UWMztYWCSeKI1pUbypc8fSrGJl3zLDa2yxTAJxI9N8Qp8gMlqUwcxwSof9XA+qeLhYNzFxqLKZ9ybIrcVDcYZX0rKfCvbXfNub4X4hjY4052HMy6l+tFwyueKc7VOp1mORrOBKS6wIMHkrD4KTOHijTWB0Xp7r3f3WNmX0ubJ6kJ3WPPkN9kgWdgxjzkWKI6TARJMSqLKV+lheEqfzvWdBvcmEJpGYd7yYW5q+UjOu73zkJ3J8sbhq8nPuojW6c0BirEF4i8NJ18muQNpUWlxKR4ggaRS9Hm8ZZgNrqmP0kIywfoe64ZeZJ5s8PYl54mtmubXWhGYJxta8l0PR+6taVAd5tchTyFwHA+ctjR9mY0+LsryVLanjJ1VykuIb2im9WrZVVzfBB0+ywR+lGSz/iipcTFrbyvbU1Pbla7y5LeWl2qPPWr6c3nbPRk5DDMbSXWrqXMRb9s7D9UqvOQ8XJi3nPbDW8u2vNjJ/3tvf9tZIMGsZQfS12Y0m2BcylazvOEs/jtDGLVP99XSIgE9Sq5mg5+L29dKbgFe0qERZeNxfURTG4y3nieLsalhqEnVV1GqQ/WN9irWSxbvPN52T6TNS9YLeWtM3K7kA5PENRMPhre4pGG/oANvtZZ694OheXtlv+dIkwlmds84J1Vp6d6Kg2Fwr6k82pUf8Er/qo9ALLRUc5FfuxO0G9GZ2MKOoD9EKWYZxdvXyQAJ8+b7O51mPK4OVuZL+kBtPt/piJ4Ee6rWPlhgHu5Ia9wxeivFetKmQoUvx6PifsFyUV6twNuedrz4iaF5e4X/ruBoeYYEtIeMOiODt3Rvlk1kreSWk4ta9pim59TpdCcobrGKpUoqcQ6pnhHiG2yAN4247cPw1CnrW7o3a3hGaiy0Q/eCPZdoNsGqn1M1Lja13DDe0t5JMV37Ul0bVxbjbe+QrmVpYCh/jpzy0KgZj7NROZLjeMBquqFliYNzEBiat51OJ1lOjeXv+BLlZJ+aNn+cdRHPF3xFe4LSfl2Jp2bYhLaQa8Y3XL4tXn1q0m4eRoPb2g5wZZmbCh9KY9jbtrZdayi1OwHdC7IbcW2/RyiHPUTzttMRsl/EWE9iVXocshPPfj65EQ6fMt6KQ/GGy5PdUWI7ocVt34zy5Fm5JMi7PicCv+VzbeiT8OZjHxtfVr5eIj6yDrgIeyFvxSV0lpeq3G73bu+d5u0RF35seAT1Mh4gs8q2n7i8Vz5G2/gChqEPXeRwmN5epNzRpz3mV1O+ScIw0q+Lmw3zRaW7y8GInX52Rkng8qVWecP2cru27COMi5t0xaK81aPgngQCvxWYJJPS4ta3wNd2tHmyWlxlj5OeEkW5co12DJuxvXDE2AJq8JOBbLKmxdB1aYs3VapDi+I6U671ZCBfrPQ8Bzp7vO28LS7HXQyZlB4+9cxITvP2TSWZ1WAyrniQa+j3Nn8MThJ2knO5NpKmWUdvxXHGmsD18da6/lfnbGWZ83DGhz1XJzREcuUIwNtxNImwt7DAVwzfbRKnvi7D05dxBIUybUQA3o6lsd5U4g994lxR+yOHVFyf+o4lJBRqJwLwdqyt1TY9bRprKCjcTgTgrZ1aC7GCgEwA3qIngID9CMBb+7UZIgYBeIs+AAL2IwBv7ddmiBgE4C36AAjYjwC8tV+bIWIQgLfoAyBgPwLw1n5thohBAN6iD4CA/QjAW/u1GSIGAXiLPgAC9iMAb+3XZogYBOAt+gAI2I8AvLVfmyFiEIC36AMgYD8C8NZ+bYaIQQDeog+AgP0IwFv7tRkiBoH/AcqnMqlSIpRuAAAAAElFTkSuQmCC;" vertex="1" parent="1">
          <mxGeometry x="647.5" y="400" width="317" height="113" as="geometry" />
        </mxCell>
        <mxCell id="gF0N6pOtgDNosUnVR9sg-5" value="" style="shape=image;verticalLabelPosition=bottom;labelBackgroundColor=default;verticalAlign=top;aspect=fixed;imageAspect=0;image=data:image/png,iVBORw0KGgoAAAANSUhEUgAAATAAAAKcCAIAAADgr3GsAAAgAElEQVR4Ae2976/c1n3n3z+jD/fBF/vUwCVqgYk2xKaYGujAqEEYDr1u+ETzwOADB2wWSxjtFeodGzHowCDatK69LC48tiEz2YRQJCK2Zr3xDiqBtWL61mFkYxRI4WYBFjFYFOJCUrkP7heH5OE5/DEzvFecGf74DAQN5/Ccz/l83p/z4jk8HI1+7/79+xG8QAFQoB0K/J4HL1AAFGiNAgBka1IBjoACngdAwigABVqkAADZomSAK6AAAAljABRokQIAZIuSAa6AAgAkjAFQoEUKAJAtSga4AgoAkDAGQIEWKQBAtigZ4AooAEDCGAAFWqQAANmiZIAroAAACWMAFGiRAgBki5IBroACACSMAVCgRQoAkC1KBrgCCgCQMAZAgRYpAEC2KBngCigAQMIYAAVapAAA2aJkgCugAAAJYwAUaJECAGSLkgGugAIAJIwBUKBFCmwRyNu3vrz9CJEev/sj/oWPjjdb+OQH/I9+WKNeydLy1u07pUKq4PYj+U8ZgkNQoK4CWwPy+MMLB0dPvP5JXUdKo/+WaT5/8R9ubW5vXzy4dHQGIK+ZB+d+bK66Ztz66IVzRxevbe5+iDVKyRqiCFUxf/jhh19++WXVmbTs8uXLv/nNb9ZU2BaQH7/+tvC69eJ544c1kPI879rFM4/+RwDy4OjJ139Rpc6vr118++DgzC5VmexR2SMkq0cqlEL5yU9+8vjjjz/77LNffPFF6SQq+Ku/+iuGYf7sz/6s8mxSuB0gb//Di+d/bN32EJZvFievW9dvXLv5a8/79c2Pb1jXv/Ruf37NuvGD54+e/8ENy7phWU6C8O2bn6CzudeX16/Fda45x2RmKwMZW0amfnGTVMsZQh+umQf8pQtPvvfm9dKpj688Kfz4xW8XgFwih5FZ+/rxr+k22NU7t67baYVbpcXw7c8/Rm1vWDnnsZnbt7LQUPi3P7927fO876uC+vK69QkKE9u/RkTDTa6lkuLOknd8tqhS0aD1MeXJimTlLQ/0061bt3ieZxjmW9/61q1bxYkoofHcuXNXrlxZI9BWgLz55nvpYvX4wwtPmNfyI+vaxaMLP/jwZf5t4QXz5R8ee7fsN1++/IJwJLxw+eWXL7/88uJm7O/x0aWDi3bm+u2PrW+fP0JNXr788ouXvnn+nZevLeOzeSBv2y/zR3xS7aLBn3/nolmUJrV5zTy48OF188fnL8zz1wz36MI7L187PrpAgLx9/Wek94s/Es4fXTj6PPMtdvXDd59/+5sXfpy6d+7o+XezCneuv3np/Pn3XriIArz4wnvnz106SoKMTRybJn/u6NsvxuG/eOmb3zSOrJ9duPAh8WpdUCj8HxxdFp689CJS78cXvnn05HcXN29+9N0nU5svXnj73HnjXapHr4ZB/puJw+YLwtE5/nKaxBXJyqQY+IHrun/yJ3/CMMzTTz/9q1/9KlPj1VdfZRjm8ccfN00zK6w82AKQt+2LT2Q3db+2Xjx6/t0cEtcuHh0cXHrzZm4OKa+CckAezy+cv3REN7n50ZspaTSQ7rsXjl6gu7t1g3Imr0AM5LF364cvHL1oJmyjCrd+aJx/8R9uey4NpHfbvUkHcfPDCwdkNY5cPXj7okXN5x9fefIcWiMkr9vHn+daH106eOGjtOT6zwTEJ6XGrRsX+aNzBMj1QdkXD44OLvyM4Hb7xsUnjs6de+8H14nN62++dw4FlbxOadC79e4LR/RKp5ys1DC8ed7nn38+Ho8Zhnnqqad++ctfep730ksvMQzzB3/wBz/60Y82KtQ8kLfeNajce97HV5548srHlCMISDI40hPlHN82f5zNkB+//vbq/SEKyI+vPCFQQzO2fXx06YnKG8UUSM+7/jPhSTwD3LYvPnnpXTQ35YGk/I8PPz/69tHLeMsHAcn/LL/yzVUotr754bfPXU5af/z623xpVY9iz4DcEBQC8qKV6+Hj198uKnz9Z/wTOAs1DL5o5tbknmUeUOuIcrJy3Q/+g+M4f/zHf5ww+ed//udM/HrnnXfqCNM4kMdvCm+/TvPn3Xr3+aMXLZLgaxePvk2t9xIvK3J8zcRAfhlPYsRCPjAC5K0fGgfn3+b5d3J/nqzgH1nIgPS8j19/J5kBrr/5Hp4KCkDeObZ+9vKLRmb5m9QebG4yT50rNHetNy+/+Hzm2NvnDswYyFvvXijihAzc/PDbGMhNQZHwM1kq/EGb3kmPaAmwVqUKg7RWj7YDl/nY84NPP/30j/7ojxIUGYapSaPX+H+2c9v68bmDo4PyHzy8knReOHILCVkLpGddPLpAL0RzjakBZJkHL3x089aXtwp/Kp83UkB6t2+gifHahxeyqTI/Qx6/e+n8hZ99fLzMVn30grYCgFxztES88OYvjm/hawqFx7WXKy5P8YyE7yE3BEWFj2Wp8IfqERlfp1KFQQASS3uK908++eQP//APGYb5+7//+/rNmp0hi5Mh9uOT158g0yba1KkEMr/uQoMAb+rcetcgSzhsFL9TA+jWR8+fI7d2uMKKdxrI+Nbx3AF9M0lPcfE8hheosbnjN3my5VMBAA3k8TybnVJXrv+Mx/PV7WvmE08W9r0+P7pwROLdEBQVPg60wh8ayNMbrACykCzcNbzTCty4cUPXdbpk43GjQH585YnsRiXfM7qxxNsYlUCiu8SLN+L5Z3k7mYYoID0PjVH+4gI/xvjy2uvvPfmyHVfMjcibR5fOC5ct9FgFvW7fvPHyC1cK27ypa3kgPe9z881/IBubNFFoTfv2kxdv4I2ZLz9+0zh/iiXrL15/4h2y5XPrF28+f4SXrJ7nLT9+/b1z5y9dPFqghyLvWi/w71y8+CMCpOetDSoXfhLaBiBPb7AAZEWyUk3h7VEVaBJIs7ShSry7/Q8vnnvvzXgrsBJI77b9unB0cP5t9DzDivc8c0CiXRbr9UvfPBevh8+9feHiR9fT5WNhRN45ti4//2S6bD4v/OgHFuaIeBMfFYEsnKZnSM+77Ry9+N759Ab10uvWJ6dZsnq3r3/4onB0/sn4HvLCZesauaNLer11/cbRD+LHHj/48NrxnQIAnrcmqEL4yN5GIE9rsOhPOVkF8eDjWRVoEsiz+gDtigqgJXppI7pYCT73UQEAct9Zvf3J6y+QNTbyBj3Tf+fla3gHaN8OQv+7VACA3KXalX3h5WiyHv7m0cH5S6+vWmZXGoDCHikAQLYmmbeX8dMamBhbk5F9OAJA7kN16BMUWKEAALlCGCgGBfahAAC5D9WhT1BghQIA5AphoBgU2IcCAOQ+VIc+QYEVCgCQK4SBYlBgHwoAkPtQHfoEBVYoAECuEAaKQYF9KABA7kN16BMUWKEAALlCGCgGBfahAAC5D9WhT1BghQIA5AphoBgU2IcCAOQ+VIc+QYEVCgCQK4SBYlBgHwoAkPtQHfoEBVYoAECuEAaKQYF9KABA7kN16BMUWKEAALlCGCgGBfahAAC5D9WhT1BghQK/d//+/QheoAAo0A4FAMh25AG8AAViBQBIGAigQIsUACBblAxwBRQAIGEMgAItUgCAbFEywBVQAICEMQAKtEgBALJFyQBXQAEAEsYAKNAiBQDIFiUDXAEFAEgYA6BAixQAIFuUDHAFFAAgYQyAAi1SAIBsUTLAFVAAgIQxAAq0SAEAskXJAFdAAQASxgAo0CIFAMgWJQNcAQUaBvLK8dVn33ru8VfYx1462M2fx19hn33ruavHFuQSFOiBAk0Cecl+fzcQVvZyyX6/B/mAEAauQJNAPv3GM5Wo7Kbw6TeeGXguIfweKNAYkA8ePvja987vhr3KXr7+6jfuP4Qf7OrBmBx0CI0BGUVRJScVhR/cvHdCXnc+O3gsX3Lv7kc3H5AK8dGdyzVuSmtlMgzwK6xVf5eVfEsRFMvf3KUzEw7nNeoVLPnzQ2HmJIWho08mutM+EQo+D+zjzoFM2Pvqpymon925d/e1BEh0kKPutRjLWigmDTfkzrd1acSyIyF+8RzDCorhBBtaZafDoOnBW7IYLFRZXdTwyFEZyTwDkKbEqCmQ0dKQZWOZhbfqoOTkqopQ3oQCuwby8lcnJyclxmJKtwpk6GgCJxyaLj3aA9eQxbqThKOSsdyE8lH0CBabALJeEI/gZL0OoFZOgRYBmS1S0SIWTZXNzZDhYsryaq3lWei5dvxyvWxCDD3HtmcyI8+SU0uaakrO0F86pcboPDIQNwqWju14YVxQYTGrRxlFTdDLWfqZQ4jlwgxJqq1wDpn06RkyWMauZF1lkeOe6oadWYCDR1dgL0Deu/nBgXo3vZHcwZLVM0R2uiDDeZVsyTSqqJqmaaoicIK6iJeFgWNomiIyooLOaNrcK1vwF1OBG0nTuMJUGuUuADEIpiWPUAW0Sl5hMQdMFIXubMJxYuLQVBpxgpZeVPJAepbMcZO06wnHycayOticfdpGsJjy2IKmKiInGstVTpZjh5LmFNg1kOn+TXIPma1Us4Ot3EMGc4WpwaNvSVxuRyWw1TGZhzat3XyPvqcLbXU81t00UQgEZqza+cmrbDEHDPJHMmn2PctIrhD0DBk6Gi/qLkWgZ0jj6uVAzj4F5NIQhFn17WTZyeYGH1gqK7BzIF8q76mmmzrZkhXfTDa1ZM0Nw7wE3jyesFChq49Fgx7+yRIvo+q0I9NWGQlvmCIPhNIGStliuJhmN6quThGd9zq+/UwvFcFcYac2hSOq6qisMs/TH1vIKbE0BHy5WRpC6XKRdll2sugLfG5SgX0AmZsGm/yG3Qph0DCvHJ+Fgc1wfLIBS/7muWxu3TgyA9eaqcoEN+Y5cpsXg2AX3auwSIrWT+tkdnP1Md43xj0LgjBiy/wX7yF9U8JAosWxNGI5fqKommFRt8+PsvNUjBc+11BgCEBGgSUzslUxY9BLP1tlFMvDzyjJO558CCtVsqKFIz9deOTRCGGmsJmSNa+wSBXRM2zWBB8Q45454XWHuJsdYb9xE/SemyFpIJNKYeC59sLU0O0z3nymPKItwfGWFGgSyBZ/dc7VeTZ/P5boSQY2orZ6nZcqj0ZmaZLLsuJobDbdxIVoWs5KciCQNmWL1PBHV5HMQNYmPaD8dvUxn92sFusVPuf8KAOZ1fbMCaslzyvXh521gIOGFGgSyFZ/uRztRLLoQWT28CD0XfOQZ2V8oxd5psSJmo0fd4SerSl4oojvMcdqcrMWhqXpB93KUcT7C1VgCU85ELLMobvEgkUKyCj2R1AX2J/A0UU+3WalgIxCR+V56glr4JqH0yyorDd0kPODAtI1VAM9jUlfnimxeEVR4SSuBu9bUKBJIKMounps7eWfX105vlpDHN+eKeKIZZIXx8uq6dBbo1Hk27rMc+l5UZnZ1OnQ0UWO4Ubo6UNhvxT1HX8PiEu+BiROzeWCelSYA4E4WraYAxIbTRxmR5Jq4ccZNJBRFAWuOcWB5eqRvuKjnB8UkIFrqVncDCfSX2AqO1kwCh+bVKBhIJt0DWyBAsNTAIAcXs4h4hYrAEC2ODng2vAUACCHl3OIuMUKAJAtTg64NjwFAMjh5RwibrECAGSLkwOuDU8BAHJ4OYeIW6wAANni5IBrw1MAgBxeziHiFisAQLY4OeDa8BQAIIeXc4i4xQoAkC1ODrg2PAUAyOHlHCJusQIAZIuTA64NTwEAcng5h4hbrAAA2eLkgGvDUwCAHF7OIeIWKwBAtjg54NrwFAAgh5dziLjFCgCQLU4OuDY8BQDI4eUcIm6xAgBki5MDrg1PAQByeDmHiFusAADZ4uSAa8NTAIAcXs4h4hYrAEC2ODng2vAUACCHl3OIuMUKAJAtTg64NjwFAMjh5RwibrECAGSLkwOuDU8BAHJ4OYeIW6wAANni5IBrw1MAgBxeziHiFisAQLY4OeDa8BQAIIeXc4i4xQoAkC1ODrg2PAUAyOHlHCJusQIAZIuTA64NTwEAcng5h4hbrAAA2eLkgGvDU6BhIK8cX332recef4V97KWD3fx5/BX22beeu3psDS93EHEPFWgSyEv2+7uBsLKXS/b7PcwPhDQwBZoE8uk3nqlEZTeFT7/xzMByB+H2UIHGgHzw8MHXvnd+N+xV9vL1V79x/+H9HqYIQhqSAo0BGUVRJScVhR/cvHdCXnc+O3gsX3Lv7kc3H5AK8dGdyzVuSoeUOIi1nwrsHMiEva9+moL62Z17d19LgEQHOepei7GshWLSsFaKwgC/wlr1d1nJtxRBsfzNXToz4XBeo95mS5E/PxRmTo2Kp66Si2Z73Zzar1Y32DWQl786OTkpMRZTunUgfVuXRiw7EuIXzzGsoBhOUDc/YdA0wSWLwUKV1UUNjxyVkcyGgDQlRq0JZBicRoNcNP4puqmbkT7WaxGQ2SIVLWLRVNnkDBk6msAJh6ZLj/bANWRRd+px5qi1x23NgfIIFvcDpG9KZ74MAJD1RsVegLx384MD9W56I7mLJWu4mLK8Wou80HPt+OV6Gaih59j2TGbkWXJqSVNN6Rz6S6fUGJ1HBuJGwdKxHS+MCyosZvUoo6gJejlLP3MoKgNJqq1wjpjEITqxSxWkVNkKlrZtqYKgWok3tDqpYjkP6ahR14VuVkpF3Bzm0a6BTPdvknvIbKWaHWznHtIzRHa6IMN5VaqTaVRRNU3TVEXgBHURLwsDx9A0RWREBZ3RtLlXtuAvpgI3kqZxhak0yl0A4tFoWvIIVUCr5BUWi6PWnU04TkwcmkojTtDSi0oeSM+SOW6Sdj3hONlYrgrWM2WOFbIQR7KxmOWWrKtseXNNm0rjcRphstQPlwZxUFVEjpVMok0uGvrD0hC51AdkdDSa1lmmlzXvY8nOgXypvKeabupkS1Z8M9nUkjWYK0wNHn1L4nI7KoGtjskSbdMC0/foe7rQVsdj3U2HDBqNzFi185NX2SI9aiPkDz2+o8izjOQKQc+QoaPxou5SBHqGNK5cDoSOOuZzXgS2KrBsthbfYKu8ZA19j47JMyVGmeOSfDTZPWS4mDKHNS6PfcRtc0z7ADI3DTb5DbsV4eYGRr6ON48nLFTo6mPRIJf3uJ5vShlVZXzypoqfbJWR8IYp8kAwloUqZYtorOINFleniC60pIAM5go7tSkcUVVHZQkXWVt0YZItjEtajLrEfW6yVQYys50eeOaE1fAOER0NtWRFxVJR6aKhwX4eApBoBFSMT5RzsvRDo5Xjkw1Y8jfPZXNrGZ/CoAlca6YqE9yY58hGaHxJsAv1UeeYPnyKFK2f1onfrj7G+8a4Z0EQRmyZf3TJqSilLlebbFUB6duGNpWzrkdkuo3VzQKkuom8+VTk2JEgT7WZmdxcYwEG/94kkK396lxgyeWpIU49GdiRrTKK5eFnlOQdTz6ElapBgxZ7/HThkccClGlqeqDbVlikiugZlm5V8NszJ7zuEHezI+w3aZubvrJiVx/j68ImWyUg41W14fpZ1DR2q4GM+w4DtAVmGVN004uXEplXgz1oEsgWf7nc1fncfgPON0VNYMlV6zxcM57PSpMcOaux5HYTlcYLM/yoMD9OcSNEX8EiBSS6iuRN4na5mR3Ne3x2s0pVqThEq+DizaWr89mSdZMt35Qm1KYNusvFLKe9LQ2BKqGiWXFNiputvfRUhNHroiaBjKLo6rG1l39+deX46oY0od1DFj2IzB4ehL5rHvIsuTp7psSJmo039EPP1hTylDIezcnNWhiWph90+0XtwPgLVWAJT9VAVlikh3CE/BHUBfYncHSRT7dZqQtJFDoqz1NPWAPXPJxWTzmoKicb+GEsqimIIsXQeltoGZ0GmUiALgZkkwg91uU2L1mDuaYvyJOjwFb57EZ9QxIHcLphINutmG/PFHHEMsmL42XVdOit0SjybV3mufS8qMxs6nTo6CLHcCP09KGwX4rCjr8HxCVfAxKn5nJBfZmmGsiobDEHJDaaOMyOJNXCjzNoIKMoClxzigPL1SvnI3AMRUwiZEeSbvtoZzS709tky7MU9F2nEcdJFtoAC5fmVOTSe29Jt52cMToaSoJcGpC7i8JeWtnr4ZQMCsjhpBUi7aoCAGRXMwd+91IBALKXaYWguqoAANnVzIHfvVQAgOxlWiGorioAQHY1c+B3LxUAIHuZVgiqqwoAkF3NHPjdSwUAyF6mFYLqqgIAZFczB373UgEAspdphaC6qgAA2dXMgd+9VACA7GVaIaiuKgBAdjVz4HcvFQAge5lWCKqrCgCQXc0c+N1LBQDIXqYVguqqAgBkVzMHfvdSAQCyl2mFoLqqAADZ1cyB371UAIDsZVohqK4qAEB2NXPgdy8VACB7mVYIqqsKAJBdzRz43UsFAMhephWC6qoCAGRXMwd+91IBALKXaYWguqoAANnVzIHfvVQAgOxlWiGorioAQHY1c+B3LxUAIHuZVgiqqwoAkF3NHPjdSwUAyF6mFYLqqgIAZFczB373UgEAspdphaC6qgAA2dXMgd+9VACA7GVaIaiuKgBAdjVz4HcvFQAge5lWCKqrCgCQXc0c+N1LBQDIXqYVguqqAg0D+burV3/1p3/66de+9guG2c2fT7/2tV/96Z/+zrK6mgHwGxSgFGgSSP/993cDYWUv/vvvU3HBISjQSQWaBNL91rcqUdlNofutb3UyA+A0KEAp0BiQ//bggfMf/sNu2KvsxeG4f7t/nwoNDkGB7inQGJBRFFVyUiz8/i/+3wl5/b9ffD+u8P1790jhyb1f/G8mLkEHp7gXXSN/GBRe4ZrKK045M+Fw7q842bJi31IExdrsrD8/FGZOy5wfsjv7ATLl8Kd3T05O4uMyfuWSzWSuTqRvSgzHC+TFcww7EqemG6xuVDzjqIxkbh7jcbMwOAPxxQ5rfw6DYnfBQpXVxebgkDAqAFlb6a1X3CuQDPMVQvLuVxXzYfNAFsdd6Nn6hGMl06up8imAdNRdDnPflGpfKQqxApAFQfb9sU1AZovWuz/9RQWijzpDFoGMpfctheU1h57OQs+145fr0cVRVAayqmroObY9kxl5llhZ0tNUsHTiUidXWh4EmWFn6eecCJa2g9yKKyAjwdK2LVUQVCsxnPqMvCj0kdmk46oAsrJe2UUo2YoCbQIyd8e4/Rky1TOwZEaZp9SEjiZwgqJqmqapisAJ6oKsUfNArqoaOIamKSIjKsiIps3xBOxZMsdNpnHhdMJxsrHMsZb6Ey6NCceJ2AcxP4cjH2amJoxQBWTam2vaVBqPpcSw4SSRFEDz5ocCN0rqqIrIcbKVuFWotyqorYw9MFqhwF6B3O09ZOUMGUWRZ07S9aVvSVxuJySw1TFZDNJAbq6a7y50NF7UXYpAz5DGam5qxkT6Hj2peqZELhholmYYycCQJ00qlqw0aKhvXrUpo4FtmsnVgK4XbQiqYvhAUdMK7AfIbHG6YZc1q5ebPFeuXVeLkxt3hWrZOVcfi4WhHvmmNNbdpAUFZI2qOSCDucJObQpHZNFR2WxqLvhEf/TMCavhfRcE5HRRMFQBZLiY4rvYYK4wskXhSBvPgo+iaFNQdDs43pICOwfyNI8xio9MNrVdrRE97oq1loYQD3g0cHM7sfGeLM9lABAg61TNAenqY3ZE9njToxErGMuiO1EU+bahTeWs+ojFbMX3sZPSLlQFkGgqTT1w9XF1N6hnSpiNQVV4CkVNKwBALg0xnbxslVEsr/C8MiBPFAiQUY2qOSA9c8LrTtl08WkFQsSSOMlw/ewUxUzVxlJCFVlYpyOEAJmbYYvjhza+KahiW/i8BQWaBLLFX52jxx2tYuiofPbgI7DktWtICsgaVVWb7sjVxzxe+tLlpWPfKj4YXBoCnuxWA1maNgmQaClafbeanyGjTUGVfIWC5hVoEsgWf7m8DGToLxfoMaRAP/PwTIkTNRs/7gg9W1P0bOOFAhJtBa2rGjOQ3DOGYXzHh9DnD8kXEQLXPJxWfZUGoUt2YALXkLn8krU0GUZosZk+Tk17i8nN5mjUNycb+EsQ4dI6FKRkmzUvzPqgmh99YLGkQJNARlH0O8vazz+/unq1FBpdgMZd/sXxE2W2KDyqQ1OGrcs8l9TlRGVmr3rssbZqFDq6yDHcaMQJGt7fDFxzKo7Y2DY7klSr8rFHFC7Nqcild7OSbjv0l2lyFwUSoWcpI5YdjTguBY26h4xrxX1XhJUHcn38pDs42poCDQO5NT/BMCgwCAUAyEGkGYLsigIAZFcyBX4OQgEAchBphiC7ogAA2ZVMgZ+DUACAHESaIciuKABAdiVT4OcgFAAgB5FmCLIrCgCQXckU+DkIBQDIQaQZguyKAgBkVzIFfg5CAQByEGmGILuiAADZlUyBn4NQAIAcRJohyK4oAEB2JVPg5yAUACAHkWYIsisKAJBdyRT4OQgFAMhBpBmC7IoCAGRXMgV+DkIBAHIQaYYgu6IAANmVTIGfg1AAgBxEmiHIrigAQHYlU+DnIBQAIAeRZgiyKwoAkF3JFPg5CAUAyEGkGYLsigIAZFcyBX4OQgEAchBphiC7ogAA2ZVMgZ+DUACAHESaIciuKABAdiVT4OcgFAAgB5FmCLIrCgCQXckU+DkIBQDIQaQZguyKAgBkVzIFfg5CAQByEGmGILuiAADZlUyBn4NQAIAcRJohyK4oAEB2JVPg5yAUACAHkWYIsisKAJBdyRT4OQgFGgbyR5/85onv/89/958v//53zN38+Xf/+fIT3/+f//2T3wwiXRBk3xVoEsi//1+3dwNhZS9//79u9z1ZEF//FWgSyP/46v+oRGU3hf/x1f/R/3RBhH1XoDEgHzz8t//vv1zZDXuVvfx75cr9Bw/7ni+Ir+cKNAZkFEWVnMSFn1+/f0Je9786TO4w//EeKfxnL23+k6/+lZRG139D1YnL//X256s66nmuILwBKLBDIBMOYwgRVDF4KV0JhIhJb3lycoLhfP+fo+s/iTeHslZr94pq5SsMgrBWxab9ElMAACAASURBVChyZsLh3F9TeWOFNW3besq3FEGx1kWdeN7H2FuQk50DiTl8/59PTk7uvY8BSz8mZGZTKD77+40B6ZsSw4x1t5b0jspI5rqhubFCrW72WSksXZ2ChSqri2CjU92PfWOI+6iwcyBjtJb/aFYBiebDw9sRWbFmZDYFpKuPRX025ZT55hEXRRvH3MYK+0jpafp0VEZ1TtOA1O187CSUNh3tEEjMWbJMrQKSTJi//52UzOU/NrhkDRdTbmqHEcLS8CrSEPpLx0Yv10PL2vKY21ghNRp6jr1EzAepQSf+VOyy6mywtJ24d1I5WNpuYaIOlol9Uinr2Y0jsJ2ln1uaY7uh59qoLXLRnsmMPEvqYwcz14lp4iZlsizOhmCJPTharcAOgcymu2QhiteuaIcmu4f8yVf/im8gk6mySSA9Q0wXq74pjVUnN16jwNYElptMNfSaTkaCurByS9aNFSiV0cpYNS15NJJig1NpxHKyRV8EPEvmSHccJxvL2KHQTq4axJqrjxkWXUjIy9XH5Uk+XBoTjhMVFUWgKiLHSibpEQE0MzVhhCrMvShwDE1TREZU4ohRUfyKXc9mzdCdEZtTacQJWqpbAchV4RCf4aiOAvsD8jtmcmeYTpwJhwmZeC5NacQ11+yvJvuuawMOHXWc3RGG9pSVLWrZ6ptSbvhGkWfKHEvuITdWyHWe3KqqNtWDq/OEqtDReFF3KcY8I7tGFGhzVG6qquPpgtR2dT4PaNJ56HtUh5FnSgzB1lEZhpEKC4OKJSsNpG9JHA11FHmWsUgmaxrIteHkhIEPGxTYDZA7+hrdulgDSyY8RBFatvJkb8fVx+WdnqUhZEBurJDvG41qwVjmCj1zwmrJ1BPMlZwzcT1HZVN8XH2cXS3QhKk6yN1iUc545Qeqx3j9zdBQp32W7iHDxRSXVQaNe6KA3BAObgHvNRQYCpDLbLmKRaEJDeZKebDS95AbK2Cr6Ts9zeBTVJmrj9mRUHyNWMzw0hDSyTyYK8mVwjPEtChcTMsXD9yvbWhTOTM8YjFbcTATagWbNKiYIdGdc7LRsyLotCsKyE3hYAXgfbMCTQLZ3q/OoRUqU/XCa1hbZaTSszc0IGtXyEtNwZedoMo8c8LrTlB+4VWpZ4jxtlNgyXj7yTclXIS5zUwnB/EC03D97EkG1SN9daGaZfBVllWqgmtSQG4MB7eB940KNAlka79cTk+GtCJkSRZYcsYeroEWYlnhxgq4VfKeQyE9RZflF8z5tvGnhETMJS4a6y6FaKGZb0lkPozPoTV39lSDAog0REDa5GN8RCCtCjqrTNvbGE7WCg42KNAkkFEU/fc9/fOrH63751eEu6IYiNT0vs0zJU5QF/iBg29r4kQUMyDRJs+GCrRxGj5cnisLHZXnD00Xb8IErnk4pefowJLHkiRmN45RFIX2lC8UYdvxO8KC7CMFroF2pdYDiaRRk/3bMEynZwJkKejA0UU+3WalgYw2hpNzFD6sVqBhIFd3tLcz4aKwoUp7gtayeE0YeQtVGiVLW06cmsswN+aiaHOFzHQOvrS0WBa45lRM+2NHkmoljz2wDeRacefHUVmGRhTXTd/DpTkVOY6P7yEl3XbQwxf8BKMYTNImdHSRY7gRep6R7gnTQEZR5Ns6ViXnZdHehnAKrsLHFQr0H8gVgUMxKNBGBQDINmYFfBqsAgDkYFMPgbdRAQCyjVkBnwarAAA52NRD4G1UAIBsY1bAp8EqAEAONvUQeBsVACDbmBXwabAKAJCDTT0E3kYFAMg2ZgV8GqwCAORgUw+Bt1EBALKNWQGfBqsAADnY1EPgbVQAgGxjVsCnwSoAQA429RB4GxUAINuYFfBpsAoAkINNPQTeRgUAyDZmBXwarAIA5GBTD4G3UQEAso1ZAZ8GqwAAOdjUQ+BtVACAbGNWwKfBKgBADjb1EHgbFQAg25gV8GmwCgCQg009BN5GBQDINmYFfBqsAgDkYFMPgbdRAQCyjVkBnwarAAA52NRD4G1UAIBsY1bAp8EqAEAONvUQeBsVACDbmBXwabAKAJCDTT0E3kYFAMg2ZgV8GqwCAORgUw+Bt1EBALKNWQGfBqsAADnY1EPgbVQAgGxjVsCnwSoAQA429RB4GxUAINuYFfBpsAoAkINNPQTeRgUaBvKLnzs//O7f/t0zf/k3T/3Fbv783TN/+cPv/u0XP/+sjeqCT6DAKRVoEsh/unpjNxBW9vJPV2+cMnaoDgq0ToEmgbz0nb+uRGU3hZe+89etUxccAgVOqUBjQD58+PCtZ//rbtir7OW//afpwwcPTxk+VAcF2qVAY0BGUVTJSaHwi9+eUK/fffHUX/zNR787OTl5+EsL1dTvPETHv/o//5eqhQ7jmpvuS9dIGwZBWHV6VXlV3coyf34ozJzKU60r9C1FUCx/o19dimljMB2rsBcgY7pi9k5++2kVkDGcT1kxlrVQTLBfrb2jMpJZMRJ9U2LUR8LpVBbC6qvCar8f6Uypt2Chyuoi2Gj0VDFttAYVTqPA/oB86tN/OTkZFpCO+oj0nyaz0dl7AyBPJXSjlfcHZLo6tdozQ4aeYy/R/BF6ro1eztKvWOeSs6huafDi0/nWyLY9kxl5FltO+kkzGSydtLv1k1e15SiKgqXteGHqN4pgRW9ZgGQIZTZdZCB9lWIikth0PVwf3ptTYC9A4vvD335K3TfS95D7WbLG43DhaMJoMtXQazrhWEFdUEtdz5Q5VlBUdFZVhJFsLGZk0RsujQnHifi0yLGS6SW5ChxD0xSREZXYsjZPyz1L5jjSHScbSwIGSfMay1GE5kJpZmrCCHWNLK/orQCaNz8UuJEUx6oqIsfJVuJVoV7oaAJHgubykhAn4agBBfYCZOG2EK9d8QbPv3yUfKlg1/eQaByynIwZitX1TInFd5+ho4551aamscBWBZYl69DQ96izkWdKjDInJcVFZOhovKi7FIGeIY1VhyrAKV5r2VEZhpGMlHHcpNhbfjZHfReDMc3kapAD0rckLrcTFNjqGEuC+4L3phRoA5DpRms6bybTJtpQ3QeQY90tSLucCUlhMFcY2SJ4xfXCxZQhQBaaRp45YTWyZ1RAJJgr7NQu0OeoLM1w0SL+nLOMgJwuCoYq7iGRs+kWVmUw2DgNpKuPxSLqvimVdcKN4f2RFNg1kIWnIM1+XK2Eo7GCsSyf98wJGVrxOLRLlWyVkdCzAlcfV9igBy+6pbQNbSoL+DWips94aUlv6br6mB3hmtn7qNrTdZYdlZnk5vU4hgL+qIwUVQeTxk7FhMDl+My59IDnKi4AJeGg4AwKDARI35IYtcxahGGLlUPjsDw7oSEZTz+5SSmT2tXHeNaJ0OpOMlw/e7hBjWzUgPAQN/fMCa87QflVnOuiDZarH+oUess7UB1M7FZ+aWurjGJ5dXxMG8PbIynQJJBt/uqcZ4hsaVUXLqYstR5D+JQWpYEl4zJXH5du8Fydz5asMfVkgRpF0dIQMlpTIOmrgquP+dISuSqdGyyvBpLuLX9FqAoGd01fRwJLrrWGxm3h/dEUaBLIVn+5PHRUnhU1G+/uh56tiSxP76CgcShJ8kSz8b6qb2siJ8zwbSWywcmGm95HBq55KIgiYQ4BRjZ9AteQudySNYYguWkMQzQNIoP8oYkNRsjitOqrNOstVwNZ6i0/RReCCZfWoSAl26w0kBHamuIKwil61cbTo41EaB0r0CSQURR98fPP9vTPr3IzU3VyA9eciiOWiV/sSJwSEuIGyTgMl+ZU5NI6kmrlH0MEjqGQs7rto53U7MYwaZvec0m67dAnYwB1kWO40YgTtHS3lnaKHZX6w5GstVwNZBQ6xd4Kq9i47yRUhhOVGb4Q5YGM74x1ma+oiL2D98YUaBjIxvzah6HSONyHE9DnsBUAIEn+AUiiBRztSQEAkggPQBIt4GhPCgCQlPCP/G+xKFtwCAqcRQEA8iyqQRtQYEsKAJBbEhbMggJnUQCAPItq0AYU2JICAOSWhAWzoMBZFAAgz6IatAEFtqQAALklYcEsKHAWBQDIs6gGbUCBLSkAQG5JWDALCpxFAQDyLKpBG1BgSwoAkFsSFsyCAmdRAIA8i2rQBhTYkgIA5JaEBbOgwFkUACDPohq0AQW2pAAAuSVhwSwocBYFAMizqAZtQIEtKQBAbklYMAsKnEUBAPIsqkEbUGBLCgCQWxIWzIICZ1EAgDyLatAGFNiSAgDkloQFs6DAWRQAIM+iGrQBBbakAAC5JWHBLChwFgUAyLOoBm1AgS0pAEBuSVgwCwqcRQEA8iyqQRtQYEsKAJBbEhbMggJnUQCAPItq0AYU2JICAOSWhAWzoMBZFAAgz6IatAEFtqQAALklYcEsKHAWBQDIs6gGbUCBLSkAQG5JWDALCpxFAQDyLKpBG1BgSwoAkFsSFsyCAmdRAIA8i2rQBhTYkgIA5JaEBbOgwFkUACDPohq0AQW2pEDDQF45vvrsW889/gr72EsHu/nz+Cvss289d/XY2pJAYBYU2KUCTQJ5yX5/NxBW9nLJfn+XwkFfoMA2FGgSyKffeKYSld0UPv3GM9sQCGyCArtUoDEgHzx88LXvnd8Ne5W9fP3Vb9x/eH+X2kFfoEDjCjQGZBRFlZxUFH5w894Jed357OCxfMm9ux/dfEAqxEd3Lte4KW1cHTAICuxYgZ0DmbD31U9TUD+7c+/uawmQ6CBH3WsxlrVQTBrW0i4M8CusVX+XlXxLERTL39ylMxMO5zXqbbbUUI3Q0ScT3Tm9pGdu2JDjbTOzayAvf3VyclJiLKZ060D6ti6NWHYkxC+eY1hBMZygbkrC4PTDbb3tksVgocrqooZHjspIZoNAhsHpgivXXxqybCzXxxtFUSnkqGbDjZZ7UqFFQGaLVLSIRVNlkzNk6GgCJxyaLj3aA9eQxbqXdUdlVKfRrD+CxYaB9E3pVHyftn4m2yOEnNno98FegLx384MD9W56I7mLJWu4mLK8WmtBFXquHb9cL5sQQ8+x7ZnMyLPk1JKmmhofob90So3ReWQgbhQsHdvxwrigwmJWjzKKmqCXs/Qzh6IykKTaCudSk1l82F6wtG1LFQTVSrqhwq4MZ0X9YBkHljle6meViMWGURSRWKiQYxnT3GDfs976c7BrINP9m+QeMlupZgfbuYf0DJGdLshwXpW+ZBpVVE3TNFUROEFdxMvCwDE0TREZUUFnNG3ulS34i6nAjaRpXGEqjXIXAN+UGNW05BGqgFbJKyzG9cg0HLqzCceJiUNTacQJWnpRyQPpWTLHTdKuJxwnG8vKYIPFlMf1NFUROdFYRt5c06bSeJy6nq7hV4dTXT93iajsZ0XIuYZRtDLkSpvlNHS+ZOdAvlTeU003dbIlK76ZbGrJGswVpgaPviVxuR2VwFbHZCW3abXle/Q9XWir47HupuMDgcaMVTs/eZUt5oBE/kgmzb5nGckVgh7FoaPxou5SBHqGNK5aDiwNQZhV3uZVLEHXhRNV1KcuEav7QX4X1/1Uw2h1yGtsdp7BXAD7ADI3DTb5DbtcZORDbpiTYnTkzeMJCx26+lg06OEfRWjgZVRVjKW8rcInW2UkvGGKPBBKWx5li+Fimg1YV6eILtimgAzmCju1KRxRVUdllXme/iiKloZQuigkhisAK/ZIh1MF5NIQ8MVrdT9VQFIN14S8xmbR025/HgKQaJhXjE+UOHJ5RtMoxycbsORvnsvm1jI+hcwHrjVTlQluzHNkIzS+JNiF+lWjk3Syflonfrv6GO8b454FQRixZf7j9aA0Yjl+oqiaYVE3yVVArgmnCkjaROjOqvupCpk0XBvyaptFWbv9uUkgW/vVucCSGdkqzRg5ICNbZRTLw88oyTuefAgrVRlHC0d+uvDI0wPCTDzTZjMfaV1hkSrKTUmkUXJEjHvmhNcd4m52hP0uNo3CwHPthamhm+R0i5lAkdZeH84mIBMjFf2sBxKlIFtUlNyOC6psVtfsammTQLb4y+WuzrP5+7EkYWRgR4ElV63zssQiVkqTHDmrsXjFlpShaTkrqV40V1ikgERXkcxA1k96QPnt6mM+u1kt1lv72TMnrBZvIfmmNMndrTprw0FA5uvH15xV3pJ+YiALIlIXg7Uh50OhbOZPdP1Tk0BGUXT12NrLP7+6cnx1QybQTiSLHkRmO+mh75qHPCvjG73IMyVO1Gy87x96tqaQp5ToBkdNbtbCsDT9oFs5inh/oQos4akayAqLFJBR7I+gLrA/gaOLfLrNSgEZhY7K89QT1sA1D6dZUJQsrqEa6JlL+vJMiU3XDWixmHqfxLY+nKhUPwfk6n7QjXpRRArINSGvsYnj6cd7w0C2WxTfniniiGWSF8fLqunQW6NR5Nu6zHPpeVGZ2dTp0NFFjuFG6OlDYb8UhR1/D4hLvgYkTs3lgvoyTTWQUdliDkhsNHGYHUmqhR9n0ECiB3euOcWB5erl8hG4lppFx3Ai/TUlz1LQl5hGHCdZ8c7WunDQblipPvluwbp+yiHngFwZ8jqbuSC7/mFQQHY9WeB//xUAIPufY4iwQwoAkB1KFrjafwUAyP7nGCLskAIAZIeSBa72XwEAsv85hgg7pAAA2aFkgav9VwCA7H+OIcIOKQBAdihZ4Gr/FQAg+59jiLBDCgCQHUoWuNp/BQDI/ucYIuyQAgBkh5IFrvZfAQCy/zmGCDukAADZoWSBq/1XAIDsf44hwg4pAEB2KFngav8VACD7n2OIsEMKAJAdSha42n8FAMj+5xgi7JACAGSHkgWu9l8BALL/OYYIO6QAANmhZIGr/VcAgOx/jiHCDikAQHYoWeBq/xUAIPufY4iwQwoAkB1KFrjafwUAyP7nGCLskAIAZIeSBa72XwEAsv85hgg7pAAA2aFkgav9VwCA7H+OIcIOKQBAdihZ4Gr/FQAg+59jiLBDCgCQHUoWuNp/BQDI/ucYIuyQAgBkh5IFrvZfAQCy/zmGCDukAADZoWSBq/1XAIDsf44hwg4pAEB2KFngav8VaBjIL37u/PC7f/t3z/zl3zz1F7v583fP/OUPv/u3X/z8s/7nCiIcgAJNAvlPV2/sBsLKXv7p6o0B5AtC7LkCTQJ56Tt/XYnKbgovfeeve54rCG8ACjQG5MOHD9969r/uhr3KXv7bf5o+fPBwACmDEPusQGNARlFUyUmh8IvfnlCv333x1F/8zUe/Ozk5efhLC9XU7zxEx7/6P/+XqoUO45qb7kvXJCoMgrDq9KryqrqVZf78UJg5ladaV+hbiqBY/ka/Go8pdPTJRHcqM7DRm2FV2AuQMV0xeye//bQKyBjOp6wYy1ooJtivTp2jMpJZMRJ9U2LUR8LpVBbC6qvCar8f6Uypt2Chyuoi2Gj0VDFttIYqLA1ZNpa1qnax0iNf1knQ+wPyqU//5eRkWEA66iPST/JW4+jsvTUPZA13O1zFN6XKy/1ZQtofkOnq1GrPDBl6jr1E80fouTZ6OUu/YpVFzqK6pcGLT+dbI9v2TGbkWWw56SdNWLB00u7WT17VlqMoCpa244Wp3yiCFb1lAZKRktl0kYH0VYqJSGLT9XB9JJnv2m55CRKXhsRDqkVV1DiQXLWS3WCZk4+qnGWuws3KSFHbik5zQmUfqjxGrW1LFQTVSnJIyUg7Vvt4L0Di+8PffkrdN9L3kPtZssbjcOFowmgy1dBrOuFYQV1Q48wzZY4VFBWdVRVhJBuLGVn0hktjwnEiPi1yrGR6SSoCx9A0RWREJbaszdNyz5I5jnTHycaSgEGyuMZyFEVoQT4zNWGEukaWV/RWAM2bHwrcSIpjVRWR42Qr8apQL3Q0gSNBc3lJUifDxZSVrfwVJbSnnDJHZYVbhlVRowZTmxbA1ccMWypKjBJ54qOV4URRfCqLQOT4Q6x/2TdkKydA/MG05FEq1VQasZlUkTfXtKk0HicyaoaTl6Dg4+aPewGycFuI1654g+dfPkq+VLDre0ikPMvJmKEky6bE4uVI6KhjXrUpxQNbFViWrEND36PORp4pMfTYKS4iQ0fjRd2lBqBnSGO1avNjrWVHZRhGMlLGcdKLveXHGeq7GIxpJleD/Hi0JC63ExTY6hhLgvtC764+FnM+BJY81t24Cg3k2qhdfZxXjJuq6ni6IBq5Op8HNO5gTThVp1Se17DMtG9pPHkBTIlhxrm8uzpPXyX6sWSlt0zjjdZ03kymTXR2H0DiEZRmBu1HzISkMJgrTHEOiMLFlCFAklbJkWdOWI3sGRUQCeYKndakiaOy9IgsWsSfc5YRkPSYxZaKjiFn0y2symCwcXo8ljBLJpCyTlHkGSJdTLdcGgJmeEPUrj7OREYTpuog0otF2FP8viacylNICSxzHSCFwo5UTn40oeLosENnft/1DFl4CtLsx9UqOBpb1DSu7JkTMobicWiXjNgqI6FnBa4+rrBBD140Vm1Dm8oCfo2o6TNeuNFbuq4+Zke4ZvY+qvZ0nWVHZSa5eT2OoYA/KiNF1cGksVMxoeHM8Zlz6QHPVVwAInR1SpeoURSvPrOJjRqym6Im7AZzJUmOZ4jpgA8XU5IvKlNrwvFNqUIc35TwpbIOkHTaULeUQsknAJKeYPExlaHCoW9JjFpmLcKwxdWRyviySdqjIRlPP/mrIq6AbnJwunxL4iTD9bOHG/m8UTzErT1zwutOUH6R9RnuZb3liiGVow9boRyoDiatSLttq4xieXV8RI2zWZFarqJyCsiNUXuGGC99A0vGS2DflHBRxTUxiqI14fimVMHw0hCwpQr1aAEK8CUS5SrQ0aUKnv2tyRmyzV+d8wyRLa3q0EYEznl62SstSgNLxmWuPi7d4Lk6ny1ZY+rJAjV+/CZktKaI0FcFVx/z6U3W+gxusFwxpCp6yzNaFQx2gh5ugSXXWkOnbdNlawZmWkwBiaBdH3VCIuYytpDwTSGKXcXva8KpOuXqfEbp0kjvSbCtKFwcZkktzoZJJVqhuEbFJJyZO9VBk0C2+svloaPyrKjZeFs69GxNZHl6BwWpLEnyRLPxvqpvayInzJKNiShCNjjZcNONm8A1DwVRJMyhoUZu/gPXkLnckjUeGskmYhiiaRAZ5A9NbDBCFqdVX6VZb7kayFJv9JK1FEy4tA4FKdlmzQ83z5S4gnDK6m/dxMvWQ4XLX/1oIDdHjfCTJDG7cURK2VO+UJQf54Xc0OEUTiGReTrx6GIt6nh7NHANiaN36vJqVAGJFlHpfnqS17xrp/rUJJBRFH3x88/29M+vcjNTtQSBa07FEcvEL3YkTgkJcYNE+XBpTkUurSOpVv4xROAYCjmr2z7aScVL1ihpm95zSbrt0CdjAHWRY7jRiBO0dLeWdoodlfrDkay1XA1kFDrF3sg9ZGw37jsJleFEZYYvRKUh6Nu6zFdUxN7l3tEiPpt+0jM5INGzPyoVFVGH9pQt7nc5KouXKrnuyIdV4eD+sgCKiY8CZyalA4MdSTPHpfNWUqN0DxlFnqWMWHY04rj0mka8OuVRw0Cesvd2Va9Svl0egje9VwCAJCkGIIkWcLQnBQBIIjwASbSAoz0pAEBSwjf4pX3KKhyCAvUVACDrawU1QYGtKwBAbl1i6AAUqK8AAFlfK6gJCmxdAQBy6xJDB6BAfQUAyPpaQU1QYOsKAJBblxg6AAXqKwBA1tcKaoICW1cAgNy6xNABKFBfAQCyvlZQExTYugIA5NYlhg5AgfoKAJD1tYKaoMDWFQAgty4xdAAK1FcAgKyvFdQEBbauAAC5dYmhA1CgvgIAZH2toCYosHUFAMitSwwdgAL1FQAg62sFNUGBrSsAQG5dYugAFKivAABZXyuoCQpsXQEAcusSQwegQH0FAMj6WkFNUGDrCgCQW5cYOgAF6isAQNbXCmqCAltXAIDcusTQAShQXwEAsr5WUBMU2LoCAOTWJYYOQIH6CgCQ9bWCmqDA1hUAILcuMXQACtRXAICsrxXUBAW2rgAAuXWJoQNQoL4CAGR9raAmKLB1BQDIrUsMHYAC9RUAIOtrBTVBga0rAEBuXWLoABSorwAAWV8rqAkKbF0BAHLrEkMHoEB9BQDI+lpBTVBg6wo0DOSV46vPvvXc46+wj710sJs/j7/CPvvWc1ePra1LBR2AAttXoEkgL9nv7wbCyl4u2e9vXy7oARTYrgJNAvn0G89UorKbwqffeGa7UoF1UGD7CjQG5IOHD772vfO7Ya+yl6+/+o37D+9vXzHoARTYogKNARlFUSUnFYUf3Lx3Ql53Pjt4LF9y7+5HNx+QCvHRncs1bkq3qBOYBgV2osDOgUzY++qnKaif3bl397UESHSQo+61GMtaKCYNaykWBvgV1qrfwkq+pQiK5bfQs9ouOTPhcN7pCGqHerqKuwby8lcnJyclxmJKtw6kb+vSiGVHQvziOYYVFMMJ6goWBm0hOFiosrqo7XjdAHdZz1EZydwtkGHQmgSuUbpFQGaLVLSIRVNlkzNk6GgCJxyaLj2MA9eQRd2px5mjMqqzRkk4dRoFdg+kb0q7vgScRhBcdy9A3rv5wYF6N72R3MWSNVxMWV6tRV7ouXb8cr0M1NBzbHsmM/IsObWkqcZKBkvbiZsES6doIK6DK8Q9UCYqegx913bL80dcGkYR8ocygKzjTp1CeYR7xW5G5eahn3psUzFT9ePD1ZVwDxVxUEay9kkfq4Gsaa4qTb6bpiDr13dtpFSwtG1LFQTVijOT5Cmr1KqDXQOZ7t8k95DZSjU72M49pGeI7HSR8bUyAck0qqiapmmqInCCuoipCBxD0xSRERV0RtPmXoWJeIjZljwSMgMsJxvLrFtUYWZqwkhUVGxiVY/oCiJbee5De8opc1TmmxI1W4fubMJxk2ns2lQacaLuZp1GFSM/13xpiFzqsaZNpdFoWl4L+4upwI2krIf8xS0XFxJO5FhBo69+ga0JbObhZCSoAhCAtQAAGoBJREFUC2vlknWzuVWiRZFnSpxkZtnxTCm5DHtzFNt4nIZwivuUikRvt2jnQL5U3lNNN3WyJSu+mWxqyRrMFaYGj74lcbmtksBWx2SVs2nJ6qgMywqqTVEU2Co/ziZmR2UYRjKy4RJF63p09bFI140CSx7rbjwaaKKQDWoMRumozLZ81gMZLqbM4eZLle/R03Voq2PsShQh5EtxKSxx3jcltuihzLGr7iE3mlubptBRhaSz0FF50Vhm+MCSNb9luotv0mXi5w/o8Zs/E3lzDV8uSwQkU1E28moAyRQntShcHDLJrJYM3Nx1YX2PniFmfUdRRFdGGKX3s65Os5FGtzSErOlmIHPXiII+Kz7aKiPRyJeud1SFVR6uAzInUxRFeXOE9dQ935SyeCMEIq+aRvE6BUC2Bkg0fjEVhRFGhiuaRjk+2YAlf/NcNtZqADkhqyXcj2dOWC3ZC3JUJldhU4/hAi9RowgtV6lRSnxBRzbuLHtHYaXAkAizs7kLlDefihw7EuSpNjOLd6ZZk8C1ZqoywcLwHIVTRQ/UQnnF8qSqUdJb1RlStkm02IZnTJjR1CbrdlQ6QCBb+9W5wJLLk1ecOpJpdBVWLA8/oyTvOK0EgmTgFP92VIZcprOTrj4W0nUT1VdyelOPZFaklqtxU+KLo1Zca9AVCONb6rV4C4oMhgHa17GM6YTj5Gzqw0GEjsbz04VHnhrkjOY+pG2oMmp2wwajCHFF7gZIebICLp3Jm1ubpiiZIkWRzy+Thwhki79c7up84T4mGQRUpgNLZlfMo3Hd6rmIjCV071Mikl6vUX0lrTb1GEXpspVerma+JNNu1cgO5grZEaKXr0m3aBmNV7zE/fSoCh9HY/OIIOBJSSmuPFXoakgqJ90gD0uFqQebza1NE76nTlau1NaSb0q5BUop9HYUNLmpE0XR1WNrL//86srx1Q16epbMsehBpI+nvNB3zUOeJTMC2qMTNRs/7gg9W1PIU0rElposg8IQ26A6dVRGkKQJedQZIPPcYbwviupVjLT1PaKpCy1bDxV6uZqayp6JIht4OxitzGxNzO3yoC1mUcfffwhcQ+JYFgMZzDV9QZ6UxLtQ6c4RCQ3hQ003/kIVaJwq4srHmnqIdUUeTkTxjEAmm1ar0hTvq+K1au5DOinHW2qV+SPx7vWoYSD3GsvGzn17pogjlkleHC+rpkNvH6LhrMs8l54XlZlNnQ4dXeQYbjTiBI3eS027jcell3wbKDbAFdpXDdz1PSLLrj4uT7xkyRp3TnXKjiSddhqdD5yZlEbNjqSZ41JPTXKSsCNJXVC7wGlksZPSiEu+4iROzeWCfmhRFVexzFuo2AUOGQiLFbKu8iynxcXa1WkqTYrxNja5lHiWgr6oNeI4yaqKkviwx6NBAblVnYuDZqudgfG+KgBANpVZALIpJQdtB4BsKv0AZFNKDtoOANlY+rvxrwkaCxcMbUUBAHIrsoJRUOBsCgCQZ9MNWoECW1EAgNyKrGAUFDibAgDk2XSDVqDAVhQAILciKxgFBc6mAAB5Nt2gFSiwFQUAyK3ICkZBgbMpAECeTTdoBQpsRQEAciuyglFQ4GwKAJBn0w1agQJbUQCArCtr7Z8Lhx/lrisp1CsrAECWNYlLSr9TXvvnwuFb5iskheIaCgCQ1SIV/glwdaXqUgCyWhcoraPAcIDMfljbWWa/4hErlPup7GUQ/y54xe+UV/xcOPV74ZTJCiBX/q54lP2g97pfDa+TSKjTDwUGAWS4NCYch34wPP5JcpGjfyIm/s0I+hfFV/xOee7HE6Mo+b3w1Cb6vfDsx7oLQKIf8yG/2s3RP2Ze51fD+zHMIIq6CgwCyCj0PeoHxdEvzlM/nlj+qezkF6myn5FKtMwBiX/bjMjsWUby/w7kfhQG/YJi7pf9I8+Q0h8zR7/dVuNXw0kXcDQABYYBZDGR1M8XV/yiOKpdvodE/GBG6V93LNqmgUS/11b8wd7IUZPfMYx/TDH3vwWUTEHB4BQYCpC+bWhTGf/ytjDKfggxZq/8g51lIClGV/wadzp4qCWrq4/xf0eZdS0IIzb97eR6vxo+uDE56IAHAWS8wDRcP/vp7dzykwKIDIW1QNL/1wRpgo8oe5454XWH/Ap6dkT9ruv6Xw3HRuF9IAoMAUjfov/3NpTYpSFky096iUmSjoAs/J8ZFKNVv8adtaWARL+qypd+eDirWTio+tXwQhX42HcFhgBkjAX5f+LQ/5vM5ZesxZ+6j3+fuPg75RSQyc9nC+oC/xp34Ogin/6fiDSQyX80QX7NPEI/Zz5N/veMWr8a3vfxB/EVFBgEkFG4NKcil/7nVpJuO9Rvd1fPkFH5d8pzQMY/2q/jX+NGP/lt4f+aNQck+uFw15zi30vPVaz3q+GFhMHHfiswDCD7nUOIrkcKAJA9SiaE0n0FAMju5xAi6JECAGSPkgmhdF8BALL7OYQIeqQAANmjZEIo3VcAgOx+DiGCHikAQPYomRBK9xUAILufQ4igRwoAkD1KJoTSfQUAyO7nECLokQIAZI+SCaF0XwEAsvs5hAh6pAAA2aNkQijdVwCA7H4OIYIeKQBA9iiZEEr3FQAgu59DiKBHCgCQPUomhNJ9BQDI7ucQIuiRAgBkj5IJoXRfAQCy+zmECHqkAADZo2RCKN1XAIDsfg4hgh4pAED2KJkQSvcVACC7n0OIoEcKAJA9SiaE0n0FAMju5xAi6JECAGSPkgmhdF8BALL7OYQIeqQAANmjZEIo3VcAgOx+DiGCHikAQPYomRBK9xUAILufQ4igRwoAkD1KJoTSfQUAyO7nECLokQIAZI+SCaF0XwEAsvs5hAh6pAAA2aNkQijdVwCA7H4OIYIeKQBA9iiZEEr3FQAgu59DiKBHCjQM5JXjq8++9dzjr7CPvXSwmz+Pv8I++9ZzV4+tHiUFQhmuAk0Cecl+fzcQVvZyyX5/uGmEyPuiQJNAPv3GM5Wo7Kbw6Tee6UtSII7hKtAYkA8ePvja987vhr3KXr7+6jfuP7w/3ExC5L1QoDEgoyiq5KSi8IOb907I685nB4/lS+7d/ejmA1IhPrpzucZNaa2MhAF+hbXqt6iSMxMO536LHNrgSujok4nubNbZnx8KM2eDtfLpXLPanZXttKlk50Am7H310xTUz+7cu/taAiQ6yFH3WoxlLRSThhuE9W1dGrHsSIhfPMewgmI4wYZW2ekw2DyysspbOXBURjLbC2QYFBVaGrJsLDdr4ZsSo54ByFyzep2Vndzs3i5r7BrIy1+dnJyUGIsp3SqQoaMJnHBoujR/gWvIYp0rOMqIo55lzDSay3YD6ZvSWS8XjQBZS+pHcLKW/Ueu1CIgs0UqWsSiqbK5GTJcTFlerbF2iqLQc+345XrZhBh6jm3PZEaeJaeWNNU4BcHSdlCT2ACukVlzln5mDrXI1UZWqe6wxSgK/aVDOVMBZJBWcHCPaWPkclyEK1D2K4pIl9RR1nvRuZzxOOhgaduWKgiqFbsbl1FRUkZx5zlBKoAk9arETgzmm2FJ087K0q9wknKuBYd7AfLezQ8O1LvpjeQOlqyeIbLTRQ6ISumTaVRRNU3TVEXgBHURLxADx9A0RWREBZ3RtLlX0RzRMjM1YSQqKqoRLo0Jx6EPsTWRYyWTtMvVRr2JHCto9CUjsDWB5SbTuMfpZCSoCyu3ZA3d2YTLKkgjTtTdLMZ4rJqWzCcOxPbFmeu7usgJsU8VXVJR+YupwI2ktHdplLueYeMjVCFe9HtzTZtK43HaAN8I5K8gicOpIlNpxGUB58mKPEsmgU04TjaWWWCUj1G+GdVZsJjyWJlYWxEtnFc4SVvc//GugUz3b5J7yGylmh1s5R4ymCtMDR59S+IUi7pFC2x1TBZhm5asjsowjGQQ5kLfoy/unikxyhyXlGpHvqWwYtbcN6UcwFHkmTLHkntI5C1NOKogcRL2H41VZqzauL/4NMOy3HRBitDCgXSZH4y+RykRhbY6HutuWqVsHJ2oWA1SjEQVDltGcsHLkRU6Gk9fWqLIM6Rx5fJmFZBLQxBm1beuFU7m4973p50D+VJ5TzXd1MmWrPhmsqklaz5vOcW9eXKFj6LI1celwembUjYM6wC5FnvPnLAa3rlAQBZr2yqDgXJ1avxjj5eGkAG5qgJ2F8U8oWZktH6cK4yQ32IJF1PqIoH7qXynnIv5KViqBnJpCPiKVukw7onKUDBX2KldmBAdlSXXMtwovgRQ9/Wks6Uh5K5FpEXVVYM624LDfQCZmwab/IbdCj3XDDtyCUfDleOTDVjyN89l2NQAskBA5NuGNpUzayOWDB/SMXGalK2Y00mFeIvJJk3TI1QhmSOpIZ7VoprjsooifCpwrZmqTLD3PJddDJIJrdR7xeRDilZElHZGeevqY7wPjrsWBGHEli8ARSBJZ1HozqQRy/ETRdUMi7p9BiCb5C3/UKTCMh5LxffAkhnZIks1cp4akLbKKJaHn1GSd3yxrgEkng1i+/ESzXD97FEANeriPdtcbdQk7wyeLImzaFDjRo5aMbWhK0867eY6S01Q9rHRiqL4FFo38tOFlzlPO5cAied6bKpqrFOM0DNs1gQfUN565oTXHSJ/doTzgNskczK5xJX7DwPPtRemhnYD8F465RFlqEWHTc6QLf7qnKvzhVuyJAfUgAwsuXJdhJOFgCzNCvhkHidU6lvFR2toxZk9bKM6zmxQZegSgtnD59FiLiuk4aQr4OsONcTx6RxTaSHVZVYNHTgam+8esZ6VVBmP56vSEoE8CamKKOuSNujqYz67W81qVB7QzSrvYdNW1M2Cb0pFJytN762wSSBb/eVytHPHogeR2eOH0HfNQ56V8T5IvCsiajZ+3BF6tqbgK2t8jzlWk5ubMKy4XBfHNhpYZFMFPfLkai9Zo2SLRlAX2Bnf1sSJKBIoYm/xNjC6ANiaSO3y5MdqMryKHpavItkwRPBTW0b+QhXIxWDFDJlcI+JNLSxQbj5Cm05URIGji3y6r5zzNnRUnqeeGAeueTjNkpS5uGaGdA3VwE9eEilZfKGqcJK2uP/jJoGMoujqsbWXf3515fhqDS19e6aII5ZJXhwvq6ZD7yWiYa3LPJeeF5WZTZ0OHV3kGG6Etuup3Uvcb2m4h0tzKnLpfamk2w79vZJS7Qo6vIUqpd5y4tRchsVGyVePYm/ZkaTTzuaGeOpisXlFlziYWAlpxCXfakKdL6hHLlXGUUvPUtA3oUYcJ1kxmDkg46sG+q4Udli18NOMosHANac4UexIIhWJf+go34x0FriWmqWR4cTc97FKTuZt7vtTw0DuOxzoHxTotgIAZLfzB973TAEAsmcJhXC6rQAA2e38gfc9UwCA7FlCIZxuKwBAdjt/4H3PFAAge5ZQCKfbCgCQ3c4feN8zBQDIniUUwum2AgBkt/MH3vdMAQCyZwmFcLqtAADZ7fyB9z1TAIDsWUIhnG4rAEB2O3/gfc8UACB7llAIp9sKAJDdzh943zMFAMieJRTC6bYCAGS38wfe90wBALJnCYVwuq0AANnt/IH3PVMAgOxZQiGcbisAQHY7f+B9zxQAIHuWUAin2woAkN3OH3jfMwUAyJ4lFMLptgIAZLfzB973TAEAsmcJhXC6rQAA2e38gfc9UwCA7FlCIZxuKwBAdjt/4H3PFAAge5ZQCKfbCgCQ3c4feN8zBQDIniUUwum2AgBkt/MH3vdMAQCyZwmFcLqtAADZ7fyB9z1TAIDsWUIhnG4rAEB2O3/gfc8UACB7llAIp9sKAJDdzh943zMFAMieJRTC6bYCDQN55fjqs2899/gr7GMvHezmz+OvsM++9dzVY6vbeQDvQYFYgSaBvGS/vxsIK3u5ZL8POQUFuq5Ak0A+/cYzlajspvDpN57pejLAf1CgMSAfPHzwte+d3w17lb18/dVv3H94HzIKCnRagcaAjKKokpOKwg9u3jshrzufHTyWL7l396ObD0iF+OjO5Ro3pZ3OBDgPCkRRtHMgE/a++mkK6md37t19LQESHeSoey3GshaKScNNGQ0D/Ao3Vd3GeWcmHM79bVheYTN09MlEdzYH688PhZmzwsrpi5sKtCk7p4+gsRanDmHXQF7+6uTkpMRYTOlWgfSsQ4HleCF5jVh2JOlO0JjutQw5KiOZWwQyDIICe0tDlo3lZud8U2LUBoFsKNBtC7ZZmEeuceoQWgRktkhFi1g0VTY2Q4aOOuZVm+Yv9Gy7xkh95ITQBk6dHLrx5mPflM7KOwC5Wd6z1Th1zvcC5L2bHxyod9MbyR0sWR2NnZjeBkWDpWOjl7OkwUWNQj89ZbtebgoKPceOa6O2Dn2OGPNJC5yc0HPjnormSg5mFZ0lZSaKomCZdBdXQB4ES9u2VEFQrSSG1Bdcj7Kc2aRjKQNZWS0xs1KOrBccaIRloPoKfTcvVdLKd203H2MURZmdzDIySNWr8HKNfe92mq7MXBR6Ti5vKNu5oooektZY2rgCNWQydZKYyyGQziuPdg1kun+T3ENmK9XsYDv3kEtDYKcLQkZJCc+SOW4y1dBrOuE42Vimtf3FVOBGUnpKGrG8Su7J4nFsWvIIVTDSFXDoziYcJypqbEwacYKWtkDJmZmaMEpOqorIsdnJgk/h0iBW4poSdUnJWZp7UeTNNW0qjcepo9iXwnDw5odZMMgmJ1vJZSoPZOhoAickAaiKwAnqIltoLw0Rn0I9jkbTRfH6lYJkW/KIGGEzTcPFlJWtfKPQnnLKPF9WBtJfTHmy0Fnl5Rr7niGKBn1hDiyZYUpFY92NsxHLlYUgcvwhkjp9lVKArpO2JrBkHI0EdWGddvW+cyBfKu+ppps62ZIV30w2tmSNQkfl2ZGkmnZhqkHqho7Gi7pL8eoZ0hhz53vZYER1bXWM8xVFaBwz49xa2LckjkYnijzLSMezozIMI9EjwrcUNj8ecL6j0PfoAeqZEkOGbNlSFHtTXLLSQKIwyXBG/QS2aSYXHhpIFIFiUUEHtjpODYeLKXO47sqWuO+oDMsKOV0CW+Wxpq4+zgcdWDIRNVMgP0N6pjyirl7rvFxtv9CRb0qiqsoCdZsdWHLiW5VcKs/jiyuavYvJNCW2kHpT5thT7hvsA8jcNNjkN+yoXJYPg+XCmMo8xzAcL6umg4dcMFfYqU3hiJo6KkuGf86WrTISHq5oHNPZjCJXp3jNtUsu+ExxoqbNFevnPnvmhNXwvgsaDUVL6PJQBHJpCLgomCtMcWLKOqCALI3mBPUEGARk7oqSWcgdIPdK3IaLQ3xJ8QyRBtDV+Tyg2Bi+noSuLnK5a+ZaL6PV9nNEeoYomX5FEbpYVcmFwsfDopSCytQvDQGAxOlc9R76y8VM5lkheSDg6mN2lO6+krcRi0kLXGumKhN8iueIwvE4tql+UBpLoGTn8fjKCsqrMvqUbxvaVMb9CiOWbIQ6KlO+Ka4Akipy9TGOiO4kOSZAogiyzeisb57DYXnzqcixI0GeajMzuYEum6t0L6IuKaFNlq1oubpCs1gw11Z5juNyF8hNXq62jxa06X6yq4/jKxRyIC1aGkJ60fJNqawwuubhq2IxxhWpr8p5WTCqZDgzJBU0OlzOBEZFMHnmhNcd/ICSekeTZrxwmS488jyBVpiMY2x87YRHN8UNqsrQuXjpa7h+1nGur8pWFH3YOlVE4YDPknfKuK0yiuVRMqSH9BIiDNA2l2XEt9t4uUCsoeUcPQOmZ3KXhGyKy01QlA10GC992fjWzTNztwIbvVxpP+YfLYhcnccLI0fl4kNXH+NLg29KFSEsDQFf1UopqEw9whSvUQrBrfjYJJCd+i5rPAbj2c3Vx3x6G18SydHYvJ7xog0/TKTGcdoS7RLkG1AmSzlcPUP6VvHBIFr8ZI8Kqyyhy3fxok4BGa+m8Y0x5VR8SAUSWHJuMipWzX+uHIXx/VVpOBeWdOmIX7lcRf0gsLM7UXT7nu2obfZytf2YxADNy9mNiquPlXlAIZrcfBTlcnU+C6uUgqrUo9uh1eMhL2X6qUkg2/qvPYL5ITfRF9R+TuCah+QGHW358IemizdR0NlpcuFHilI36v5CFSiFqXGciYsu5YK6wM9AAkcX8U5AKYergUT4UDswgWug7YH1QCZX43gfMAyTCY0GMt7Z4mQDhxkurUNBSrZZc4GgCETNxhGEnq0p6dd9grmmL8gef7xTU3Etc1RGkKQJkTTWmzvM7aOiZaUkSauWqymQ9NUt3prD2VjjZZKL1fZdfSxJUu4ijG4nC0WoN0quZMgQRCuSWUi9b2viRBT3CGQURVePrb38e8grx1czJKoOfHumiCOWSV+cqMxsvKuD6geuOcXn0XashR97RL6tSyMuuckUp+ZyQe1j58Yx6TZukvSVs1WRQzQJ0GOOGAmX5lTk0ts5Sbcd+ss0K1p5loK+gzTiOAJaznocJpeIQGtQDMS39Xj7C9Wk60U5HVFwC/IggPgeu+dRMuRsZPVcfVy1tM3OV4jjmRKbkbTSy9TCSvueIRYedsQb5tnshz3IyzUll+yVV1JvoUrpMOPQaAlXZAr3UH5vcoYsW4cSUGC1Atl93uoqj3Rm2/YfyblVjQHIVcpA+VYUCP30CzlogUfu4hrra9v2G3N0hSEAcoUwULwVBdCXWeIbgFH+wWJTnW3bflN+rrQDQK6UBk5sSwH0z+DoxyhN97Nt+037S9sDIGk14BgU2LMCAOSeEwDdgwK0AgAkrQYcgwJ7VgCA3HMCoHtQgFYAgKTVgGNQYM8KAJB7TgB0DwrQCgCQtBpwDArsWQEAcs8JgO5BAVoBAJJWA45BgT0rAEDuOQHQPShAKwBA0mrAMSiwZwUAyD0nALoHBWgFAEhaDTgGBfasAAC55wRA96AArQAASasBx6DAnhUAIPecAOgeFKAVACBpNeAYFNizAgDknhMA3YMCtAIAJK0GHIMCe1bg9zx4gQKgQGsUgBlyz1dE6B4UoBUAIGk14BgU2LMCAOSeEwDdgwK0AgAkrQYcgwJ7VgCA3HMCoHtQgFYAgKTVgGNQYM8KAJB7TgB0DwrQCvz/LPO7MaOUJJgAAAAASUVORK5CYII=;" vertex="1" parent="1">
          <mxGeometry x="250" y="-10" width="304" height="668" as="geometry" />
        </mxCell>
      </root>
    </mxGraphModel>
  </diagram>
</mxfile>
